SplineFontDB: 3.2
FontName: LucidaTypewriter11
FullName: Lucida Typewriter 11
FamilyName: Lucida Typewriter 11
Weight: Book
Copyright: Copyright Bigelow & Holmes 1986, 1985.
UComments: "2021-2-2: Created with FontForge (http://fontforge.org)"
Version: 001.000
ItalicAngle: 0
UnderlinePosition: -100
UnderlineWidth: 50
Ascent: 875
Descent: 125
InvalidEm: 0
LayerCount: 2
Layer: 0 0 "Back" 1
Layer: 1 0 "Fore" 0
XUID: [1021 230 970164845 4285066]
StyleMap: 0x0040
FSType: 0
OS2Version: 0
OS2_WeightWidthSlopeOnly: 0
OS2_UseTypoMetrics: 1
CreationTime: 1612276531
ModificationTime: 1612276532
PfmFamily: 48
TTFWeight: 400
TTFWidth: 5
LineGap: 0
VLineGap: 90
Panose: 2 0 6 9 0 0 0 0 0 0
OS2TypoAscent: 875
OS2TypoAOffset: 1
OS2TypoDescent: -125
OS2TypoDOffset: 1
OS2TypoLinegap: 0
OS2WinAscent: 875
OS2WinAOffset: 1
OS2WinDescent: 125
OS2WinDOffset: 1
HheadAscent: 875
HheadAOffset: 1
HheadDescent: -125
HheadDOffset: 1
OS2SubXSize: 650
OS2SubYSize: 700
OS2SubXOff: 0
OS2SubYOff: 140
OS2SupXSize: 650
OS2SupYSize: 700
OS2SupXOff: 0
OS2SupYOff: 480
OS2StrikeYSize: 49
OS2StrikeYPos: 258
OS2Vendor: 'PfEd'
DEI: 91125
Encoding: UnicodeBmp
UnicodeInterp: none
NameList: AGL For New Fonts
DisplaySize: 11
AntiAlias: 1
FitToEm: 0
BeginChars: 65536 873

StartChar: exclam
Encoding: 33 33 2
Width: 583
VWidth: 916
Flags: HW
LayerCount: 2
Back
Fore
SplineSet
250 583.25 m 1
 333.333984375 583.25 l 1
 333.333984375 666.583007812 l 1
 250 666.583007812 l 1
 250 583.25 l 1025
250 499.916015625 m 1
 333.333984375 499.916015625 l 1
 333.333984375 583.25 l 1
 250 583.25 l 1
 250 499.916015625 l 1025
250 416.583007812 m 1
 333.333984375 416.583007812 l 1
 333.333984375 499.916015625 l 1
 250 499.916015625 l 1
 250 416.583007812 l 1025
250 333.25 m 1
 333.333984375 333.25 l 1
 333.333984375 416.583007812 l 1
 250 416.583007812 l 1
 250 333.25 l 1025
250 249.916992188 m 1
 333.333984375 249.916992188 l 1
 333.333984375 333.25 l 1
 250 333.25 l 1
 250 249.916992188 l 1025
250 166.583984375 m 1
 333.333984375 166.583984375 l 1
 333.333984375 249.916992188 l 1
 250 249.916992188 l 1
 250 166.583984375 l 1025
250 -0.0830078125 m 1
 250 83.25 l 1
 333.333984375 83.25 l 1
 333.333984375 -0.0830078125 l 1
 250 -0.0830078125 l 1
EndSplineSet
EndChar

StartChar: quotedbl
Encoding: 34 34 3
Width: 583
VWidth: 916
Flags: HW
LayerCount: 2
Back
Fore
SplineSet
166.666992188 583.25 m 1
 250 583.25 l 1
 250 666.583007812 l 1
 166.666992188 666.583007812 l 1
 166.666992188 583.25 l 1025
333.333984375 583.25 m 1
 416.666992188 583.25 l 1
 416.666992188 666.583007812 l 1
 333.333984375 666.583007812 l 1
 333.333984375 583.25 l 1025
166.666992188 499.916015625 m 1
 250 499.916015625 l 1
 250 583.25 l 1
 166.666992188 583.25 l 1
 166.666992188 499.916015625 l 1025
333.333984375 499.916015625 m 1
 416.666992188 499.916015625 l 1
 416.666992188 583.25 l 1
 333.333984375 583.25 l 1
 333.333984375 499.916015625 l 1025
166.666992188 416.583007812 m 1
 250 416.583007812 l 1
 250 499.916015625 l 1
 166.666992188 499.916015625 l 1
 166.666992188 416.583007812 l 1025
333.333984375 416.583007812 m 1
 333.333984375 499.916015625 l 1
 416.666992188 499.916015625 l 1
 416.666992188 416.583007812 l 1
 333.333984375 416.583007812 l 1
EndSplineSet
EndChar

StartChar: numbersign
Encoding: 35 35 4
Width: 583
VWidth: 916
Flags: HW
LayerCount: 2
Back
Fore
SplineSet
166.666992188 583.25 m 1
 250 583.25 l 1
 250 666.583007812 l 1
 166.666992188 666.583007812 l 1
 166.666992188 583.25 l 1025
333.333984375 583.25 m 1
 416.666992188 583.25 l 1
 416.666992188 666.583007812 l 1
 333.333984375 666.583007812 l 1
 333.333984375 583.25 l 1025
166.666992188 499.916015625 m 1
 250 499.916015625 l 1
 250 583.25 l 1
 166.666992188 583.25 l 1
 166.666992188 499.916015625 l 1025
333.333984375 499.916015625 m 1
 416.666992188 499.916015625 l 1
 416.666992188 583.25 l 1
 333.333984375 583.25 l 1
 333.333984375 499.916015625 l 1025
0 416.583007812 m 1
 500 416.583007812 l 1
 500 499.916015625 l 1
 0 499.916015625 l 1
 0 416.583007812 l 1025
83.3330078125 333.25 m 1
 416.666992188 333.25 l 1
 416.666992188 416.583007812 l 1
 83.3330078125 416.583007812 l 1
 83.3330078125 333.25 l 1025
0 249.916992188 m 1
 500 249.916992188 l 1
 500 333.25 l 1
 0 333.25 l 1
 0 249.916992188 l 1025
83.3330078125 166.583984375 m 1
 166.666992188 166.583984375 l 1
 166.666992188 249.916992188 l 1
 83.3330078125 249.916992188 l 1
 83.3330078125 166.583984375 l 1025
250 166.583984375 m 1
 333.333984375 166.583984375 l 1
 333.333984375 249.916992188 l 1
 250 249.916992188 l 1
 250 166.583984375 l 1025
83.3330078125 83.25 m 1
 166.666992188 83.25 l 1
 166.666992188 166.583984375 l 1
 83.3330078125 166.583984375 l 1
 83.3330078125 83.25 l 1025
250 83.25 m 1
 333.333984375 83.25 l 1
 333.333984375 166.583984375 l 1
 250 166.583984375 l 1
 250 83.25 l 1025
83.3330078125 -0.0830078125 m 1
 166.666992188 -0.0830078125 l 1
 166.666992188 83.25 l 1
 83.3330078125 83.25 l 1
 83.3330078125 -0.0830078125 l 1025
250 -0.0830078125 m 1
 250 83.25 l 1
 333.333984375 83.25 l 1
 333.333984375 -0.0830078125 l 1
 250 -0.0830078125 l 1
EndSplineSet
EndChar

StartChar: dollar
Encoding: 36 36 5
Width: 583
VWidth: 916
Flags: HW
LayerCount: 2
Back
Fore
SplineSet
250 666.583007812 m 1
 333.333984375 666.583007812 l 1
 333.333984375 749.916992188 l 1
 250 749.916992188 l 1
 250 666.583007812 l 1025
166.666992188 583.25 m 1
 500 583.25 l 1
 500 666.583007812 l 1
 166.666992188 666.583007812 l 1
 166.666992188 583.25 l 1025
83.3330078125 499.916015625 m 1
 166.666992188 499.916015625 l 1
 166.666992188 583.25 l 1
 83.3330078125 583.25 l 1
 83.3330078125 499.916015625 l 1025
250 499.916015625 m 1
 333.333984375 499.916015625 l 1
 333.333984375 583.25 l 1
 250 583.25 l 1
 250 499.916015625 l 1025
83.3330078125 416.583007812 m 1
 166.666992188 416.583007812 l 1
 166.666992188 499.916015625 l 1
 83.3330078125 499.916015625 l 1
 83.3330078125 416.583007812 l 1025
250 416.583007812 m 1
 333.333984375 416.583007812 l 1
 333.333984375 499.916015625 l 1
 250 499.916015625 l 1
 250 416.583007812 l 1025
166.666992188 333.25 m 1
 333.333984375 333.25 l 1
 333.333984375 416.583007812 l 1
 166.666992188 416.583007812 l 1
 166.666992188 333.25 l 1025
250 249.916992188 m 1
 416.666992188 249.916992188 l 1
 416.666992188 333.25 l 1
 250 333.25 l 1
 250 249.916992188 l 1025
250 166.583984375 m 1
 333.333984375 166.583984375 l 1
 333.333984375 249.916992188 l 1
 250 249.916992188 l 1
 250 166.583984375 l 1025
416.666992188 166.583984375 m 1
 500 166.583984375 l 1
 500 249.916992188 l 1
 416.666992188 249.916992188 l 1
 416.666992188 166.583984375 l 1025
250 83.25 m 1
 333.333984375 83.25 l 1
 333.333984375 166.583984375 l 1
 250 166.583984375 l 1
 250 83.25 l 1025
416.666992188 83.25 m 1
 500 83.25 l 1
 500 166.583984375 l 1
 416.666992188 166.583984375 l 1
 416.666992188 83.25 l 1025
83.3330078125 -0.0830078125 m 1
 416.666992188 -0.0830078125 l 1
 416.666992188 83.25 l 1
 83.3330078125 83.25 l 1
 83.3330078125 -0.0830078125 l 1025
250 -83.4169921875 m 1
 250 -0.0830078125 l 1
 333.333984375 -0.0830078125 l 1
 333.333984375 -83.4169921875 l 1
 250 -83.4169921875 l 1
EndSplineSet
EndChar

StartChar: percent
Encoding: 37 37 6
Width: 583
VWidth: 916
Flags: HW
LayerCount: 2
Back
Fore
SplineSet
83.3330078125 583.25 m 1
 166.666992188 583.25 l 1
 166.666992188 666.583007812 l 1
 83.3330078125 666.583007812 l 1
 83.3330078125 583.25 l 1025
416.666992188 583.25 m 1
 500 583.25 l 1
 500 666.583007812 l 1
 416.666992188 666.583007812 l 1
 416.666992188 583.25 l 1025
0 499.916015625 m 1
 83.3330078125 499.916015625 l 1
 83.3330078125 583.25 l 1
 0 583.25 l 1
 0 499.916015625 l 1025
166.666992188 499.916015625 m 1
 250 499.916015625 l 1
 250 583.25 l 1
 166.666992188 583.25 l 1
 166.666992188 499.916015625 l 1025
333.333984375 499.916015625 m 1
 416.666992188 499.916015625 l 1
 416.666992188 583.25 l 1
 333.333984375 583.25 l 1
 333.333984375 499.916015625 l 1025
0 416.583007812 m 1
 83.3330078125 416.583007812 l 1
 83.3330078125 499.916015625 l 1
 0 499.916015625 l 1
 0 416.583007812 l 1025
166.666992188 416.583007812 m 1
 416.666992188 416.583007812 l 1
 416.666992188 499.916015625 l 1
 166.666992188 499.916015625 l 1
 166.666992188 416.583007812 l 1025
83.3330078125 333.25 m 1
 166.666992188 333.25 l 1
 166.666992188 416.583007812 l 1
 83.3330078125 416.583007812 l 1
 83.3330078125 333.25 l 1025
250 333.25 m 1
 333.333984375 333.25 l 1
 333.333984375 416.583007812 l 1
 250 416.583007812 l 1
 250 333.25 l 1025
166.666992188 249.916992188 m 1
 250 249.916992188 l 1
 250 333.25 l 1
 166.666992188 333.25 l 1
 166.666992188 249.916992188 l 1025
333.333984375 249.916992188 m 1
 416.666992188 249.916992188 l 1
 416.666992188 333.25 l 1
 333.333984375 333.25 l 1
 333.333984375 249.916992188 l 1025
83.3330078125 166.583984375 m 1
 333.333984375 166.583984375 l 1
 333.333984375 249.916992188 l 1
 83.3330078125 249.916992188 l 1
 83.3330078125 166.583984375 l 1025
416.666992188 166.583984375 m 1
 500 166.583984375 l 1
 500 249.916992188 l 1
 416.666992188 249.916992188 l 1
 416.666992188 166.583984375 l 1025
83.3330078125 83.25 m 1
 166.666992188 83.25 l 1
 166.666992188 166.583984375 l 1
 83.3330078125 166.583984375 l 1
 83.3330078125 83.25 l 1025
250 83.25 m 1
 333.333984375 83.25 l 1
 333.333984375 166.583984375 l 1
 250 166.583984375 l 1
 250 83.25 l 1025
416.666992188 83.25 m 1
 500 83.25 l 1
 500 166.583984375 l 1
 416.666992188 166.583984375 l 1
 416.666992188 83.25 l 1025
0 -0.0830078125 m 1
 83.3330078125 -0.0830078125 l 1
 83.3330078125 83.25 l 1
 0 83.25 l 1
 0 -0.0830078125 l 1025
333.333984375 -0.0830078125 m 1
 333.333984375 83.25 l 1
 416.666992188 83.25 l 1
 416.666992188 -0.0830078125 l 1
 333.333984375 -0.0830078125 l 1
EndSplineSet
EndChar

StartChar: ampersand
Encoding: 38 38 7
Width: 583
VWidth: 916
Flags: HW
LayerCount: 2
Back
Fore
SplineSet
166.666992188 583.25 m 1
 416.666992188 583.25 l 1
 416.666992188 666.583007812 l 1
 166.666992188 666.583007812 l 1
 166.666992188 583.25 l 1025
83.3330078125 499.916015625 m 1
 166.666992188 499.916015625 l 1
 166.666992188 583.25 l 1
 83.3330078125 583.25 l 1
 83.3330078125 499.916015625 l 1025
333.333984375 499.916015625 m 1
 416.666992188 499.916015625 l 1
 416.666992188 583.25 l 1
 333.333984375 583.25 l 1
 333.333984375 499.916015625 l 1025
83.3330078125 416.583007812 m 1
 166.666992188 416.583007812 l 1
 166.666992188 499.916015625 l 1
 83.3330078125 499.916015625 l 1
 83.3330078125 416.583007812 l 1025
250 416.583007812 m 1
 416.666992188 416.583007812 l 1
 416.666992188 499.916015625 l 1
 250 499.916015625 l 1
 250 416.583007812 l 1025
83.3330078125 333.25 m 1
 250 333.25 l 1
 250 416.583007812 l 1
 83.3330078125 416.583007812 l 1
 83.3330078125 333.25 l 1025
0 249.916992188 m 1
 83.3330078125 249.916992188 l 1
 83.3330078125 333.25 l 1
 0 333.25 l 1
 0 249.916992188 l 1025
166.666992188 249.916992188 m 1
 333.333984375 249.916992188 l 1
 333.333984375 333.25 l 1
 166.666992188 333.25 l 1
 166.666992188 249.916992188 l 1025
500 249.916992188 m 1
 583.333007812 249.916992188 l 1
 583.333007812 333.25 l 1
 500 333.25 l 1
 500 249.916992188 l 1025
0 166.583984375 m 1
 83.3330078125 166.583984375 l 1
 83.3330078125 249.916992188 l 1
 0 249.916992188 l 1
 0 166.583984375 l 1025
250 166.583984375 m 1
 416.666992188 166.583984375 l 1
 416.666992188 249.916992188 l 1
 250 249.916992188 l 1
 250 166.583984375 l 1025
500 166.583984375 m 1
 583.333007812 166.583984375 l 1
 583.333007812 249.916992188 l 1
 500 249.916992188 l 1
 500 166.583984375 l 1025
0 83.25 m 1
 166.666992188 83.25 l 1
 166.666992188 166.583984375 l 1
 0 166.583984375 l 1
 0 83.25 l 1025
333.333984375 83.25 m 1
 500 83.25 l 1
 500 166.583984375 l 1
 333.333984375 166.583984375 l 1
 333.333984375 83.25 l 1025
83.3330078125 -0.0830078125 m 1
 83.3330078125 83.25 l 1
 583.333007812 83.25 l 1
 583.333007812 -0.0830078125 l 1
 83.3330078125 -0.0830078125 l 1
EndSplineSet
EndChar

StartChar: quotesingle
Encoding: 39 39 8
Width: 583
VWidth: 916
Flags: HW
LayerCount: 2
Back
Fore
SplineSet
250 583.25 m 1
 333.333984375 583.25 l 1
 333.333984375 666.583007812 l 1
 250 666.583007812 l 1
 250 583.25 l 1025
250 499.916015625 m 1
 333.333984375 499.916015625 l 1
 333.333984375 583.25 l 1
 250 583.25 l 1
 250 499.916015625 l 1025
250 416.583007812 m 1
 250 499.916015625 l 1
 333.333984375 499.916015625 l 1
 333.333984375 416.583007812 l 1
 250 416.583007812 l 1
EndSplineSet
EndChar

StartChar: parenleft
Encoding: 40 40 9
Width: 583
VWidth: 916
Flags: HW
LayerCount: 2
Back
Fore
SplineSet
333.333984375 583.25 m 1
 500 583.25 l 1
 500 666.583007812 l 1
 333.333984375 666.583007812 l 1
 333.333984375 583.25 l 1025
250 499.916015625 m 1
 333.333984375 499.916015625 l 1
 333.333984375 583.25 l 1
 250 583.25 l 1
 250 499.916015625 l 1025
166.666992188 416.583007812 m 1
 333.333984375 416.583007812 l 1
 333.333984375 499.916015625 l 1
 166.666992188 499.916015625 l 1
 166.666992188 416.583007812 l 1025
166.666992188 333.25 m 1
 250 333.25 l 1
 250 416.583007812 l 1
 166.666992188 416.583007812 l 1
 166.666992188 333.25 l 1025
166.666992188 249.916992188 m 1
 250 249.916992188 l 1
 250 333.25 l 1
 166.666992188 333.25 l 1
 166.666992188 249.916992188 l 1025
166.666992188 166.583984375 m 1
 250 166.583984375 l 1
 250 249.916992188 l 1
 166.666992188 249.916992188 l 1
 166.666992188 166.583984375 l 1025
166.666992188 83.25 m 1
 250 83.25 l 1
 250 166.583984375 l 1
 166.666992188 166.583984375 l 1
 166.666992188 83.25 l 1025
250 -0.0830078125 m 1
 333.333984375 -0.0830078125 l 1
 333.333984375 83.25 l 1
 250 83.25 l 1
 250 -0.0830078125 l 1025
250 -83.4169921875 m 1
 333.333984375 -83.4169921875 l 1
 333.333984375 -0.0830078125 l 1
 250 -0.0830078125 l 1
 250 -83.4169921875 l 1025
333.333984375 -166.75 m 1
 333.333984375 -83.4169921875 l 1
 500 -83.4169921875 l 1
 500 -166.75 l 1
 333.333984375 -166.75 l 1
EndSplineSet
EndChar

StartChar: parenright
Encoding: 41 41 10
Width: 583
VWidth: 916
Flags: HW
LayerCount: 2
Back
Fore
SplineSet
83.3330078125 583.25 m 1
 250 583.25 l 1
 250 666.583007812 l 1
 83.3330078125 666.583007812 l 1
 83.3330078125 583.25 l 1025
250 499.916015625 m 1
 333.333984375 499.916015625 l 1
 333.333984375 583.25 l 1
 250 583.25 l 1
 250 499.916015625 l 1025
250 416.583007812 m 1
 333.333984375 416.583007812 l 1
 333.333984375 499.916015625 l 1
 250 499.916015625 l 1
 250 416.583007812 l 1025
333.333984375 333.25 m 1
 416.666992188 333.25 l 1
 416.666992188 416.583007812 l 1
 333.333984375 416.583007812 l 1
 333.333984375 333.25 l 1025
333.333984375 249.916992188 m 1
 416.666992188 249.916992188 l 1
 416.666992188 333.25 l 1
 333.333984375 333.25 l 1
 333.333984375 249.916992188 l 1025
333.333984375 166.583984375 m 1
 416.666992188 166.583984375 l 1
 416.666992188 249.916992188 l 1
 333.333984375 249.916992188 l 1
 333.333984375 166.583984375 l 1025
333.333984375 83.25 m 1
 416.666992188 83.25 l 1
 416.666992188 166.583984375 l 1
 333.333984375 166.583984375 l 1
 333.333984375 83.25 l 1025
250 -0.0830078125 m 1
 333.333984375 -0.0830078125 l 1
 333.333984375 83.25 l 1
 250 83.25 l 1
 250 -0.0830078125 l 1025
250 -83.4169921875 m 1
 333.333984375 -83.4169921875 l 1
 333.333984375 -0.0830078125 l 1
 250 -0.0830078125 l 1
 250 -83.4169921875 l 1025
83.3330078125 -166.75 m 1
 83.3330078125 -83.4169921875 l 1
 250 -83.4169921875 l 1
 250 -166.75 l 1
 83.3330078125 -166.75 l 1
EndSplineSet
EndChar

StartChar: asterisk
Encoding: 42 42 11
Width: 583
VWidth: 916
Flags: HW
LayerCount: 2
Back
Fore
SplineSet
250 583.25 m 1
 333.333984375 583.25 l 1
 333.333984375 666.583007812 l 1
 250 666.583007812 l 1
 250 583.25 l 1025
83.3330078125 499.916015625 m 1
 166.666992188 499.916015625 l 1
 166.666992188 583.25 l 1
 83.3330078125 583.25 l 1
 83.3330078125 499.916015625 l 1025
250 499.916015625 m 1
 333.333984375 499.916015625 l 1
 333.333984375 583.25 l 1
 250 583.25 l 1
 250 499.916015625 l 1025
416.666992188 499.916015625 m 1
 500 499.916015625 l 1
 500 583.25 l 1
 416.666992188 583.25 l 1
 416.666992188 499.916015625 l 1025
166.666992188 416.583007812 m 1
 250 416.583007812 l 1
 250 499.916015625 l 1
 166.666992188 499.916015625 l 1
 166.666992188 416.583007812 l 1025
333.333984375 416.583007812 m 1
 416.666992188 416.583007812 l 1
 416.666992188 499.916015625 l 1
 333.333984375 499.916015625 l 1
 333.333984375 416.583007812 l 1025
166.666992188 333.25 m 1
 250 333.25 l 1
 250 416.583007812 l 1
 166.666992188 416.583007812 l 1
 166.666992188 333.25 l 1025
333.333984375 333.25 m 1
 416.666992188 333.25 l 1
 416.666992188 416.583007812 l 1
 333.333984375 416.583007812 l 1
 333.333984375 333.25 l 1025
166.666992188 249.916992188 m 1
 250 249.916992188 l 1
 250 333.25 l 1
 166.666992188 333.25 l 1
 166.666992188 249.916992188 l 1025
333.333984375 249.916992188 m 1
 333.333984375 333.25 l 1
 416.666992188 333.25 l 1
 416.666992188 249.916992188 l 1
 333.333984375 249.916992188 l 1
EndSplineSet
EndChar

StartChar: plus
Encoding: 43 43 12
Width: 583
VWidth: 916
Flags: HW
LayerCount: 2
Back
Fore
SplineSet
250 416.583007812 m 1
 333.333984375 416.583007812 l 1
 333.333984375 499.916015625 l 1
 250 499.916015625 l 1
 250 416.583007812 l 1025
250 333.25 m 1
 333.333984375 333.25 l 1
 333.333984375 416.583007812 l 1
 250 416.583007812 l 1
 250 333.25 l 1025
83.3330078125 249.916992188 m 1
 500 249.916992188 l 1
 500 333.25 l 1
 83.3330078125 333.25 l 1
 83.3330078125 249.916992188 l 1025
250 166.583984375 m 1
 333.333984375 166.583984375 l 1
 333.333984375 249.916992188 l 1
 250 249.916992188 l 1
 250 166.583984375 l 1025
250 83.25 m 1
 333.333984375 83.25 l 1
 333.333984375 166.583984375 l 1
 250 166.583984375 l 1
 250 83.25 l 1025
250 -0.0830078125 m 1
 250 83.25 l 1
 333.333984375 83.25 l 1
 333.333984375 -0.0830078125 l 1
 250 -0.0830078125 l 1
EndSplineSet
EndChar

StartChar: comma
Encoding: 44 44 13
Width: 583
VWidth: 916
Flags: HW
LayerCount: 2
Back
Fore
SplineSet
166.666992188 83.25 m 1
 333.333984375 83.25 l 1
 333.333984375 166.583984375 l 1
 166.666992188 166.583984375 l 1
 166.666992188 83.25 l 1025
166.666992188 -0.0830078125 m 1
 333.333984375 -0.0830078125 l 1
 333.333984375 83.25 l 1
 166.666992188 83.25 l 1
 166.666992188 -0.0830078125 l 1025
250 -83.4169921875 m 1
 333.333984375 -83.4169921875 l 1
 333.333984375 -0.0830078125 l 1
 250 -0.0830078125 l 1
 250 -83.4169921875 l 1025
166.666992188 -166.75 m 1
 166.666992188 -83.4169921875 l 1
 333.333984375 -83.4169921875 l 1
 333.333984375 -166.75 l 1
 166.666992188 -166.75 l 1
EndSplineSet
EndChar

StartChar: period
Encoding: 46 46 15
Width: 583
VWidth: 916
Flags: HW
LayerCount: 2
Back
Fore
SplineSet
166.666992188 -0.0830078125 m 1
 166.666992188 83.25 l 1
 333.333984375 83.25 l 1
 333.333984375 -0.0830078125 l 1
 166.666992188 -0.0830078125 l 1
EndSplineSet
EndChar

StartChar: slash
Encoding: 47 47 16
Width: 583
VWidth: 916
Flags: HW
LayerCount: 2
Back
Fore
SplineSet
416.666992188 583.25 m 1
 500 583.25 l 1
 500 666.583007812 l 1
 416.666992188 666.583007812 l 1
 416.666992188 583.25 l 1025
333.333984375 499.916015625 m 1
 416.666992188 499.916015625 l 1
 416.666992188 583.25 l 1
 333.333984375 583.25 l 1
 333.333984375 499.916015625 l 1025
333.333984375 416.583007812 m 1
 416.666992188 416.583007812 l 1
 416.666992188 499.916015625 l 1
 333.333984375 499.916015625 l 1
 333.333984375 416.583007812 l 1025
250 333.25 m 1
 333.333984375 333.25 l 1
 333.333984375 416.583007812 l 1
 250 416.583007812 l 1
 250 333.25 l 1025
250 249.916992188 m 1
 333.333984375 249.916992188 l 1
 333.333984375 333.25 l 1
 250 333.25 l 1
 250 249.916992188 l 1025
166.666992188 166.583984375 m 1
 250 166.583984375 l 1
 250 249.916992188 l 1
 166.666992188 249.916992188 l 1
 166.666992188 166.583984375 l 1025
166.666992188 83.25 m 1
 250 83.25 l 1
 250 166.583984375 l 1
 166.666992188 166.583984375 l 1
 166.666992188 83.25 l 1025
83.3330078125 -0.0830078125 m 1
 166.666992188 -0.0830078125 l 1
 166.666992188 83.25 l 1
 83.3330078125 83.25 l 1
 83.3330078125 -0.0830078125 l 1025
83.3330078125 -83.4169921875 m 1
 166.666992188 -83.4169921875 l 1
 166.666992188 -0.0830078125 l 1
 83.3330078125 -0.0830078125 l 1
 83.3330078125 -83.4169921875 l 1025
0 -166.75 m 1
 0 -83.4169921875 l 1
 83.3330078125 -83.4169921875 l 1
 83.3330078125 -166.75 l 1
 0 -166.75 l 1
EndSplineSet
EndChar

StartChar: zero
Encoding: 48 48 17
Width: 583
VWidth: 916
Flags: HW
LayerCount: 2
Back
Fore
SplineSet
166.666992188 583.25 m 1
 416.666992188 583.25 l 1
 416.666992188 666.583007812 l 1
 166.666992188 666.583007812 l 1
 166.666992188 583.25 l 1025
83.3330078125 499.916015625 m 1
 166.666992188 499.916015625 l 1
 166.666992188 583.25 l 1
 83.3330078125 583.25 l 1
 83.3330078125 499.916015625 l 1025
333.333984375 499.916015625 m 1
 500 499.916015625 l 1
 500 583.25 l 1
 333.333984375 583.25 l 1
 333.333984375 499.916015625 l 1025
83.3330078125 416.583007812 m 1
 166.666992188 416.583007812 l 1
 166.666992188 499.916015625 l 1
 83.3330078125 499.916015625 l 1
 83.3330078125 416.583007812 l 1025
416.666992188 416.583007812 m 1
 500 416.583007812 l 1
 500 499.916015625 l 1
 416.666992188 499.916015625 l 1
 416.666992188 416.583007812 l 1025
83.3330078125 333.25 m 1
 166.666992188 333.25 l 1
 166.666992188 416.583007812 l 1
 83.3330078125 416.583007812 l 1
 83.3330078125 333.25 l 1025
416.666992188 333.25 m 1
 500 333.25 l 1
 500 416.583007812 l 1
 416.666992188 416.583007812 l 1
 416.666992188 333.25 l 1025
83.3330078125 249.916992188 m 1
 166.666992188 249.916992188 l 1
 166.666992188 333.25 l 1
 83.3330078125 333.25 l 1
 83.3330078125 249.916992188 l 1025
416.666992188 249.916992188 m 1
 500 249.916992188 l 1
 500 333.25 l 1
 416.666992188 333.25 l 1
 416.666992188 249.916992188 l 1025
83.3330078125 166.583984375 m 1
 166.666992188 166.583984375 l 1
 166.666992188 249.916992188 l 1
 83.3330078125 249.916992188 l 1
 83.3330078125 166.583984375 l 1025
416.666992188 166.583984375 m 1
 500 166.583984375 l 1
 500 249.916992188 l 1
 416.666992188 249.916992188 l 1
 416.666992188 166.583984375 l 1025
83.3330078125 83.25 m 1
 166.666992188 83.25 l 1
 166.666992188 166.583984375 l 1
 83.3330078125 166.583984375 l 1
 83.3330078125 83.25 l 1025
416.666992188 83.25 m 1
 500 83.25 l 1
 500 166.583984375 l 1
 416.666992188 166.583984375 l 1
 416.666992188 83.25 l 1025
166.666992188 -0.0830078125 m 1
 166.666992188 83.25 l 1
 416.666992188 83.25 l 1
 416.666992188 -0.0830078125 l 1
 166.666992188 -0.0830078125 l 1
EndSplineSet
EndChar

StartChar: one
Encoding: 49 49 18
Width: 583
VWidth: 916
Flags: HW
LayerCount: 2
Back
Fore
SplineSet
166.666992188 583.25 m 1
 333.333984375 583.25 l 1
 333.333984375 666.583007812 l 1
 166.666992188 666.583007812 l 1
 166.666992188 583.25 l 1025
83.3330078125 499.916015625 m 1
 166.666992188 499.916015625 l 1
 166.666992188 583.25 l 1
 83.3330078125 583.25 l 1
 83.3330078125 499.916015625 l 1025
250 499.916015625 m 1
 333.333984375 499.916015625 l 1
 333.333984375 583.25 l 1
 250 583.25 l 1
 250 499.916015625 l 1025
250 416.583007812 m 1
 333.333984375 416.583007812 l 1
 333.333984375 499.916015625 l 1
 250 499.916015625 l 1
 250 416.583007812 l 1025
250 333.25 m 1
 333.333984375 333.25 l 1
 333.333984375 416.583007812 l 1
 250 416.583007812 l 1
 250 333.25 l 1025
250 249.916992188 m 1
 333.333984375 249.916992188 l 1
 333.333984375 333.25 l 1
 250 333.25 l 1
 250 249.916992188 l 1025
250 166.583984375 m 1
 333.333984375 166.583984375 l 1
 333.333984375 249.916992188 l 1
 250 249.916992188 l 1
 250 166.583984375 l 1025
250 83.25 m 1
 333.333984375 83.25 l 1
 333.333984375 166.583984375 l 1
 250 166.583984375 l 1
 250 83.25 l 1025
83.3330078125 -0.0830078125 m 1
 83.3330078125 83.25 l 1
 500 83.25 l 1
 500 -0.0830078125 l 1
 83.3330078125 -0.0830078125 l 1
EndSplineSet
EndChar

StartChar: two
Encoding: 50 50 19
Width: 583
VWidth: 916
Flags: HW
LayerCount: 2
Back
Fore
SplineSet
83.3330078125 583.25 m 1
 333.333984375 583.25 l 1
 333.333984375 666.583007812 l 1
 83.3330078125 666.583007812 l 1
 83.3330078125 583.25 l 1025
83.3330078125 499.916015625 m 1
 166.666992188 499.916015625 l 1
 166.666992188 583.25 l 1
 83.3330078125 583.25 l 1
 83.3330078125 499.916015625 l 1025
333.333984375 499.916015625 m 1
 416.666992188 499.916015625 l 1
 416.666992188 583.25 l 1
 333.333984375 583.25 l 1
 333.333984375 499.916015625 l 1025
333.333984375 416.583007812 m 1
 416.666992188 416.583007812 l 1
 416.666992188 499.916015625 l 1
 333.333984375 499.916015625 l 1
 333.333984375 416.583007812 l 1025
250 333.25 m 1
 416.666992188 333.25 l 1
 416.666992188 416.583007812 l 1
 250 416.583007812 l 1
 250 333.25 l 1025
250 249.916992188 m 1
 333.333984375 249.916992188 l 1
 333.333984375 333.25 l 1
 250 333.25 l 1
 250 249.916992188 l 1025
166.666992188 166.583984375 m 1
 250 166.583984375 l 1
 250 249.916992188 l 1
 166.666992188 249.916992188 l 1
 166.666992188 166.583984375 l 1025
83.3330078125 83.25 m 1
 166.666992188 83.25 l 1
 166.666992188 166.583984375 l 1
 83.3330078125 166.583984375 l 1
 83.3330078125 83.25 l 1025
83.3330078125 -0.0830078125 m 1
 83.3330078125 83.25 l 1
 416.666992188 83.25 l 1
 416.666992188 -0.0830078125 l 1
 83.3330078125 -0.0830078125 l 1
EndSplineSet
EndChar

StartChar: three
Encoding: 51 51 20
Width: 583
VWidth: 916
Flags: HW
LayerCount: 2
Back
Fore
SplineSet
83.3330078125 583.25 m 1
 333.333984375 583.25 l 1
 333.333984375 666.583007812 l 1
 83.3330078125 666.583007812 l 1
 83.3330078125 583.25 l 1025
333.333984375 499.916015625 m 1
 416.666992188 499.916015625 l 1
 416.666992188 583.25 l 1
 333.333984375 583.25 l 1
 333.333984375 499.916015625 l 1025
333.333984375 416.583007812 m 1
 416.666992188 416.583007812 l 1
 416.666992188 499.916015625 l 1
 333.333984375 499.916015625 l 1
 333.333984375 416.583007812 l 1025
166.666992188 333.25 m 1
 333.333984375 333.25 l 1
 333.333984375 416.583007812 l 1
 166.666992188 416.583007812 l 1
 166.666992188 333.25 l 1025
333.333984375 249.916992188 m 1
 416.666992188 249.916992188 l 1
 416.666992188 333.25 l 1
 333.333984375 333.25 l 1
 333.333984375 249.916992188 l 1025
333.333984375 166.583984375 m 1
 416.666992188 166.583984375 l 1
 416.666992188 249.916992188 l 1
 333.333984375 249.916992188 l 1
 333.333984375 166.583984375 l 1025
333.333984375 83.25 m 1
 416.666992188 83.25 l 1
 416.666992188 166.583984375 l 1
 333.333984375 166.583984375 l 1
 333.333984375 83.25 l 1025
83.3330078125 -0.0830078125 m 1
 83.3330078125 83.25 l 1
 333.333984375 83.25 l 1
 333.333984375 -0.0830078125 l 1
 83.3330078125 -0.0830078125 l 1
EndSplineSet
EndChar

StartChar: four
Encoding: 52 52 21
Width: 583
VWidth: 916
Flags: HW
LayerCount: 2
Back
Fore
SplineSet
333.333984375 583.25 m 1
 416.666992188 583.25 l 1
 416.666992188 666.583007812 l 1
 333.333984375 666.583007812 l 1
 333.333984375 583.25 l 1025
250 499.916015625 m 1
 416.666992188 499.916015625 l 1
 416.666992188 583.25 l 1
 250 583.25 l 1
 250 499.916015625 l 1025
166.666992188 416.583007812 m 1
 416.666992188 416.583007812 l 1
 416.666992188 499.916015625 l 1
 166.666992188 499.916015625 l 1
 166.666992188 416.583007812 l 1025
166.666992188 333.25 m 1
 250 333.25 l 1
 250 416.583007812 l 1
 166.666992188 416.583007812 l 1
 166.666992188 333.25 l 1025
333.333984375 333.25 m 1
 416.666992188 333.25 l 1
 416.666992188 416.583007812 l 1
 333.333984375 416.583007812 l 1
 333.333984375 333.25 l 1025
83.3330078125 249.916992188 m 1
 166.666992188 249.916992188 l 1
 166.666992188 333.25 l 1
 83.3330078125 333.25 l 1
 83.3330078125 249.916992188 l 1025
333.333984375 249.916992188 m 1
 416.666992188 249.916992188 l 1
 416.666992188 333.25 l 1
 333.333984375 333.25 l 1
 333.333984375 249.916992188 l 1025
83.3330078125 166.583984375 m 1
 500 166.583984375 l 1
 500 249.916992188 l 1
 83.3330078125 249.916992188 l 1
 83.3330078125 166.583984375 l 1025
333.333984375 83.25 m 1
 416.666992188 83.25 l 1
 416.666992188 166.583984375 l 1
 333.333984375 166.583984375 l 1
 333.333984375 83.25 l 1025
333.333984375 -0.0830078125 m 1
 333.333984375 83.25 l 1
 416.666992188 83.25 l 1
 416.666992188 -0.0830078125 l 1
 333.333984375 -0.0830078125 l 1
EndSplineSet
EndChar

StartChar: five
Encoding: 53 53 22
Width: 583
VWidth: 916
Flags: HW
LayerCount: 2
Back
Fore
SplineSet
83.3330078125 583.25 m 1
 416.666992188 583.25 l 1
 416.666992188 666.583007812 l 1
 83.3330078125 666.583007812 l 1
 83.3330078125 583.25 l 1025
83.3330078125 499.916015625 m 1
 166.666992188 499.916015625 l 1
 166.666992188 583.25 l 1
 83.3330078125 583.25 l 1
 83.3330078125 499.916015625 l 1025
83.3330078125 416.583007812 m 1
 166.666992188 416.583007812 l 1
 166.666992188 499.916015625 l 1
 83.3330078125 499.916015625 l 1
 83.3330078125 416.583007812 l 1025
83.3330078125 333.25 m 1
 333.333984375 333.25 l 1
 333.333984375 416.583007812 l 1
 83.3330078125 416.583007812 l 1
 83.3330078125 333.25 l 1025
250 249.916992188 m 1
 416.666992188 249.916992188 l 1
 416.666992188 333.25 l 1
 250 333.25 l 1
 250 249.916992188 l 1025
333.333984375 166.583984375 m 1
 416.666992188 166.583984375 l 1
 416.666992188 249.916992188 l 1
 333.333984375 249.916992188 l 1
 333.333984375 166.583984375 l 1025
333.333984375 83.25 m 1
 416.666992188 83.25 l 1
 416.666992188 166.583984375 l 1
 333.333984375 166.583984375 l 1
 333.333984375 83.25 l 1025
83.3330078125 -0.0830078125 m 1
 83.3330078125 83.25 l 1
 333.333984375 83.25 l 1
 333.333984375 -0.0830078125 l 1
 83.3330078125 -0.0830078125 l 1
EndSplineSet
EndChar

StartChar: six
Encoding: 54 54 23
Width: 583
VWidth: 916
Flags: HW
LayerCount: 2
Back
Fore
SplineSet
250 583.25 m 1
 500 583.25 l 1
 500 666.583007812 l 1
 250 666.583007812 l 1
 250 583.25 l 1025
166.666992188 499.916015625 m 1
 250 499.916015625 l 1
 250 583.25 l 1
 166.666992188 583.25 l 1
 166.666992188 499.916015625 l 1025
83.3330078125 416.583007812 m 1
 166.666992188 416.583007812 l 1
 166.666992188 499.916015625 l 1
 83.3330078125 499.916015625 l 1
 83.3330078125 416.583007812 l 1025
83.3330078125 333.25 m 1
 416.666992188 333.25 l 1
 416.666992188 416.583007812 l 1
 83.3330078125 416.583007812 l 1
 83.3330078125 333.25 l 1025
83.3330078125 249.916992188 m 1
 166.666992188 249.916992188 l 1
 166.666992188 333.25 l 1
 83.3330078125 333.25 l 1
 83.3330078125 249.916992188 l 1025
416.666992188 249.916992188 m 1
 500 249.916992188 l 1
 500 333.25 l 1
 416.666992188 333.25 l 1
 416.666992188 249.916992188 l 1025
83.3330078125 166.583984375 m 1
 166.666992188 166.583984375 l 1
 166.666992188 249.916992188 l 1
 83.3330078125 249.916992188 l 1
 83.3330078125 166.583984375 l 1025
416.666992188 166.583984375 m 1
 500 166.583984375 l 1
 500 249.916992188 l 1
 416.666992188 249.916992188 l 1
 416.666992188 166.583984375 l 1025
83.3330078125 83.25 m 1
 166.666992188 83.25 l 1
 166.666992188 166.583984375 l 1
 83.3330078125 166.583984375 l 1
 83.3330078125 83.25 l 1025
416.666992188 83.25 m 1
 500 83.25 l 1
 500 166.583984375 l 1
 416.666992188 166.583984375 l 1
 416.666992188 83.25 l 1025
166.666992188 -0.0830078125 m 1
 166.666992188 83.25 l 1
 416.666992188 83.25 l 1
 416.666992188 -0.0830078125 l 1
 166.666992188 -0.0830078125 l 1
EndSplineSet
EndChar

StartChar: seven
Encoding: 55 55 24
Width: 583
VWidth: 916
Flags: HW
LayerCount: 2
Back
Fore
SplineSet
83.3330078125 583.25 m 1
 500 583.25 l 1
 500 666.583007812 l 1
 83.3330078125 666.583007812 l 1
 83.3330078125 583.25 l 1025
416.666992188 499.916015625 m 1
 500 499.916015625 l 1
 500 583.25 l 1
 416.666992188 583.25 l 1
 416.666992188 499.916015625 l 1025
333.333984375 416.583007812 m 1
 416.666992188 416.583007812 l 1
 416.666992188 499.916015625 l 1
 333.333984375 499.916015625 l 1
 333.333984375 416.583007812 l 1025
250 333.25 m 1
 416.666992188 333.25 l 1
 416.666992188 416.583007812 l 1
 250 416.583007812 l 1
 250 333.25 l 1025
250 249.916992188 m 1
 333.333984375 249.916992188 l 1
 333.333984375 333.25 l 1
 250 333.25 l 1
 250 249.916992188 l 1025
166.666992188 166.583984375 m 1
 250 166.583984375 l 1
 250 249.916992188 l 1
 166.666992188 249.916992188 l 1
 166.666992188 166.583984375 l 1025
83.3330078125 83.25 m 1
 250 83.25 l 1
 250 166.583984375 l 1
 83.3330078125 166.583984375 l 1
 83.3330078125 83.25 l 1025
83.3330078125 -0.0830078125 m 1
 83.3330078125 83.25 l 1
 166.666992188 83.25 l 1
 166.666992188 -0.0830078125 l 1
 83.3330078125 -0.0830078125 l 1
EndSplineSet
EndChar

StartChar: eight
Encoding: 56 56 25
Width: 583
VWidth: 916
Flags: HW
LayerCount: 2
Back
Fore
SplineSet
166.666992188 583.25 m 1
 416.666992188 583.25 l 1
 416.666992188 666.583007812 l 1
 166.666992188 666.583007812 l 1
 166.666992188 583.25 l 1025
83.3330078125 499.916015625 m 1
 166.666992188 499.916015625 l 1
 166.666992188 583.25 l 1
 83.3330078125 583.25 l 1
 83.3330078125 499.916015625 l 1025
416.666992188 499.916015625 m 1
 500 499.916015625 l 1
 500 583.25 l 1
 416.666992188 583.25 l 1
 416.666992188 499.916015625 l 1025
83.3330078125 416.583007812 m 1
 166.666992188 416.583007812 l 1
 166.666992188 499.916015625 l 1
 83.3330078125 499.916015625 l 1
 83.3330078125 416.583007812 l 1025
416.666992188 416.583007812 m 1
 500 416.583007812 l 1
 500 499.916015625 l 1
 416.666992188 499.916015625 l 1
 416.666992188 416.583007812 l 1025
166.666992188 333.25 m 1
 416.666992188 333.25 l 1
 416.666992188 416.583007812 l 1
 166.666992188 416.583007812 l 1
 166.666992188 333.25 l 1025
83.3330078125 249.916992188 m 1
 250 249.916992188 l 1
 250 333.25 l 1
 83.3330078125 333.25 l 1
 83.3330078125 249.916992188 l 1025
333.333984375 249.916992188 m 1
 500 249.916992188 l 1
 500 333.25 l 1
 333.333984375 333.25 l 1
 333.333984375 249.916992188 l 1025
83.3330078125 166.583984375 m 1
 166.666992188 166.583984375 l 1
 166.666992188 249.916992188 l 1
 83.3330078125 249.916992188 l 1
 83.3330078125 166.583984375 l 1025
416.666992188 166.583984375 m 1
 500 166.583984375 l 1
 500 249.916992188 l 1
 416.666992188 249.916992188 l 1
 416.666992188 166.583984375 l 1025
83.3330078125 83.25 m 1
 166.666992188 83.25 l 1
 166.666992188 166.583984375 l 1
 83.3330078125 166.583984375 l 1
 83.3330078125 83.25 l 1025
416.666992188 83.25 m 1
 500 83.25 l 1
 500 166.583984375 l 1
 416.666992188 166.583984375 l 1
 416.666992188 83.25 l 1025
166.666992188 -0.0830078125 m 1
 166.666992188 83.25 l 1
 416.666992188 83.25 l 1
 416.666992188 -0.0830078125 l 1
 166.666992188 -0.0830078125 l 1
EndSplineSet
EndChar

StartChar: nine
Encoding: 57 57 26
Width: 583
VWidth: 916
Flags: HW
LayerCount: 2
Back
Fore
SplineSet
166.666992188 583.25 m 1
 416.666992188 583.25 l 1
 416.666992188 666.583007812 l 1
 166.666992188 666.583007812 l 1
 166.666992188 583.25 l 1025
83.3330078125 499.916015625 m 1
 166.666992188 499.916015625 l 1
 166.666992188 583.25 l 1
 83.3330078125 583.25 l 1
 83.3330078125 499.916015625 l 1025
416.666992188 499.916015625 m 1
 500 499.916015625 l 1
 500 583.25 l 1
 416.666992188 583.25 l 1
 416.666992188 499.916015625 l 1025
83.3330078125 416.583007812 m 1
 166.666992188 416.583007812 l 1
 166.666992188 499.916015625 l 1
 83.3330078125 499.916015625 l 1
 83.3330078125 416.583007812 l 1025
416.666992188 416.583007812 m 1
 500 416.583007812 l 1
 500 499.916015625 l 1
 416.666992188 499.916015625 l 1
 416.666992188 416.583007812 l 1025
83.3330078125 333.25 m 1
 166.666992188 333.25 l 1
 166.666992188 416.583007812 l 1
 83.3330078125 416.583007812 l 1
 83.3330078125 333.25 l 1025
416.666992188 333.25 m 1
 500 333.25 l 1
 500 416.583007812 l 1
 416.666992188 416.583007812 l 1
 416.666992188 333.25 l 1025
166.666992188 249.916992188 m 1
 500 249.916992188 l 1
 500 333.25 l 1
 166.666992188 333.25 l 1
 166.666992188 249.916992188 l 1025
416.666992188 166.583984375 m 1
 500 166.583984375 l 1
 500 249.916992188 l 1
 416.666992188 249.916992188 l 1
 416.666992188 166.583984375 l 1025
333.333984375 83.25 m 1
 416.666992188 83.25 l 1
 416.666992188 166.583984375 l 1
 333.333984375 166.583984375 l 1
 333.333984375 83.25 l 1025
83.3330078125 -0.0830078125 m 1
 83.3330078125 83.25 l 1
 333.333984375 83.25 l 1
 333.333984375 -0.0830078125 l 1
 83.3330078125 -0.0830078125 l 1
EndSplineSet
EndChar

StartChar: colon
Encoding: 58 58 27
Width: 583
VWidth: 916
Flags: HW
LayerCount: 2
Back
Fore
SplineSet
250 416.583007812 m 1
 333.333984375 416.583007812 l 1
 333.333984375 499.916015625 l 1
 250 499.916015625 l 1
 250 416.583007812 l 1025
250 -0.0830078125 m 1
 250 83.25 l 1
 333.333984375 83.25 l 1
 333.333984375 -0.0830078125 l 1
 250 -0.0830078125 l 1
EndSplineSet
EndChar

StartChar: semicolon
Encoding: 59 59 28
Width: 583
VWidth: 916
Flags: HW
LayerCount: 2
Back
Fore
SplineSet
250 416.583007812 m 1
 333.333984375 416.583007812 l 1
 333.333984375 499.916015625 l 1
 250 499.916015625 l 1
 250 416.583007812 l 1025
250 83.25 m 1
 333.333984375 83.25 l 1
 333.333984375 166.583984375 l 1
 250 166.583984375 l 1
 250 83.25 l 1025
250 -0.0830078125 m 1
 333.333984375 -0.0830078125 l 1
 333.333984375 83.25 l 1
 250 83.25 l 1
 250 -0.0830078125 l 1025
250 -83.4169921875 m 1
 333.333984375 -83.4169921875 l 1
 333.333984375 -0.0830078125 l 1
 250 -0.0830078125 l 1
 250 -83.4169921875 l 1025
250 -166.75 m 1
 250 -83.4169921875 l 1
 333.333984375 -83.4169921875 l 1
 333.333984375 -166.75 l 1
 250 -166.75 l 1
EndSplineSet
EndChar

StartChar: less
Encoding: 60 60 29
Width: 583
VWidth: 916
Flags: HW
LayerCount: 2
Back
Fore
SplineSet
416.666992188 416.583007812 m 1
 500 416.583007812 l 1
 500 499.916015625 l 1
 416.666992188 499.916015625 l 1
 416.666992188 416.583007812 l 1025
250 333.25 m 1
 416.666992188 333.25 l 1
 416.666992188 416.583007812 l 1
 250 416.583007812 l 1
 250 333.25 l 1025
0 249.916992188 m 1
 250 249.916992188 l 1
 250 333.25 l 1
 0 333.25 l 1
 0 249.916992188 l 1025
83.3330078125 166.583984375 m 1
 250 166.583984375 l 1
 250 249.916992188 l 1
 83.3330078125 249.916992188 l 1
 83.3330078125 166.583984375 l 1025
250 83.25 m 1
 416.666992188 83.25 l 1
 416.666992188 166.583984375 l 1
 250 166.583984375 l 1
 250 83.25 l 1025
416.666992188 -0.0830078125 m 1
 416.666992188 83.25 l 1
 500 83.25 l 1
 500 -0.0830078125 l 1
 416.666992188 -0.0830078125 l 1
EndSplineSet
EndChar

StartChar: equal
Encoding: 61 61 30
Width: 583
VWidth: 916
Flags: HW
LayerCount: 2
Back
Fore
SplineSet
0 333.25 m 1
 500 333.25 l 1
 500 416.583007812 l 1
 0 416.583007812 l 1
 0 333.25 l 1025
0 83.25 m 1
 0 166.583984375 l 1
 500 166.583984375 l 1
 500 83.25 l 1
 0 83.25 l 1
EndSplineSet
EndChar

StartChar: greater
Encoding: 62 62 31
Width: 583
VWidth: 916
Flags: HW
LayerCount: 2
Back
Fore
SplineSet
0 416.583007812 m 1
 83.3330078125 416.583007812 l 1
 83.3330078125 499.916015625 l 1
 0 499.916015625 l 1
 0 416.583007812 l 1025
83.3330078125 333.25 m 1
 250 333.25 l 1
 250 416.583007812 l 1
 83.3330078125 416.583007812 l 1
 83.3330078125 333.25 l 1025
250 249.916992188 m 1
 416.666992188 249.916992188 l 1
 416.666992188 333.25 l 1
 250 333.25 l 1
 250 249.916992188 l 1025
250 166.583984375 m 1
 500 166.583984375 l 1
 500 249.916992188 l 1
 250 249.916992188 l 1
 250 166.583984375 l 1025
83.3330078125 83.25 m 1
 250 83.25 l 1
 250 166.583984375 l 1
 83.3330078125 166.583984375 l 1
 83.3330078125 83.25 l 1025
0 -0.0830078125 m 1
 0 83.25 l 1
 83.3330078125 83.25 l 1
 83.3330078125 -0.0830078125 l 1
 0 -0.0830078125 l 1
EndSplineSet
EndChar

StartChar: question
Encoding: 63 63 32
Width: 583
VWidth: 916
Flags: HW
LayerCount: 2
Back
Fore
SplineSet
83.3330078125 583.25 m 1
 416.666992188 583.25 l 1
 416.666992188 666.583007812 l 1
 83.3330078125 666.583007812 l 1
 83.3330078125 583.25 l 1025
83.3330078125 499.916015625 m 1
 166.666992188 499.916015625 l 1
 166.666992188 583.25 l 1
 83.3330078125 583.25 l 1
 83.3330078125 499.916015625 l 1025
416.666992188 499.916015625 m 1
 500 499.916015625 l 1
 500 583.25 l 1
 416.666992188 583.25 l 1
 416.666992188 499.916015625 l 1025
416.666992188 416.583007812 m 1
 500 416.583007812 l 1
 500 499.916015625 l 1
 416.666992188 499.916015625 l 1
 416.666992188 416.583007812 l 1025
333.333984375 333.25 m 1
 416.666992188 333.25 l 1
 416.666992188 416.583007812 l 1
 333.333984375 416.583007812 l 1
 333.333984375 333.25 l 1025
250 249.916992188 m 1
 333.333984375 249.916992188 l 1
 333.333984375 333.25 l 1
 250 333.25 l 1
 250 249.916992188 l 1025
250 166.583984375 m 1
 333.333984375 166.583984375 l 1
 333.333984375 249.916992188 l 1
 250 249.916992188 l 1
 250 166.583984375 l 1025
250 -0.0830078125 m 1
 250 83.25 l 1
 333.333984375 83.25 l 1
 333.333984375 -0.0830078125 l 1
 250 -0.0830078125 l 1
EndSplineSet
EndChar

StartChar: at
Encoding: 64 64 33
Width: 583
VWidth: 916
Flags: HW
LayerCount: 2
Back
Fore
SplineSet
166.666992188 583.25 m 1
 500 583.25 l 1
 500 666.583007812 l 1
 166.666992188 666.583007812 l 1
 166.666992188 583.25 l 1025
83.3330078125 499.916015625 m 1
 166.666992188 499.916015625 l 1
 166.666992188 583.25 l 1
 83.3330078125 583.25 l 1
 83.3330078125 499.916015625 l 1025
416.666992188 499.916015625 m 1
 500 499.916015625 l 1
 500 583.25 l 1
 416.666992188 583.25 l 1
 416.666992188 499.916015625 l 1025
0 416.583007812 m 1
 83.3330078125 416.583007812 l 1
 83.3330078125 499.916015625 l 1
 0 499.916015625 l 1
 0 416.583007812 l 1025
250 416.583007812 m 1
 500 416.583007812 l 1
 500 499.916015625 l 1
 250 499.916015625 l 1
 250 416.583007812 l 1025
0 333.25 m 1
 83.3330078125 333.25 l 1
 83.3330078125 416.583007812 l 1
 0 416.583007812 l 1
 0 333.25 l 1025
166.666992188 333.25 m 1
 250 333.25 l 1
 250 416.583007812 l 1
 166.666992188 416.583007812 l 1
 166.666992188 333.25 l 1025
416.666992188 333.25 m 1
 500 333.25 l 1
 500 416.583007812 l 1
 416.666992188 416.583007812 l 1
 416.666992188 333.25 l 1025
0 249.916992188 m 1
 83.3330078125 249.916992188 l 1
 83.3330078125 333.25 l 1
 0 333.25 l 1
 0 249.916992188 l 1025
166.666992188 249.916992188 m 1
 250 249.916992188 l 1
 250 333.25 l 1
 166.666992188 333.25 l 1
 166.666992188 249.916992188 l 1025
333.333984375 249.916992188 m 1
 500 249.916992188 l 1
 500 333.25 l 1
 333.333984375 333.25 l 1
 333.333984375 249.916992188 l 1025
0 166.583984375 m 1
 83.3330078125 166.583984375 l 1
 83.3330078125 249.916992188 l 1
 0 249.916992188 l 1
 0 166.583984375 l 1025
166.666992188 166.583984375 m 1
 583.333007812 166.583984375 l 1
 583.333007812 249.916992188 l 1
 166.666992188 249.916992188 l 1
 166.666992188 166.583984375 l 1025
83.3330078125 83.25 m 1
 166.666992188 83.25 l 1
 166.666992188 166.583984375 l 1
 83.3330078125 166.583984375 l 1
 83.3330078125 83.25 l 1025
166.666992188 -0.0830078125 m 1
 166.666992188 83.25 l 1
 416.666992188 83.25 l 1
 416.666992188 -0.0830078125 l 1
 166.666992188 -0.0830078125 l 1
EndSplineSet
EndChar

StartChar: A
Encoding: 65 65 34
Width: 583
VWidth: 916
Flags: HW
LayerCount: 2
Back
Fore
SplineSet
166.666992188 583.25 m 1
 333.333984375 583.25 l 1
 333.333984375 666.583007812 l 1
 166.666992188 666.583007812 l 1
 166.666992188 583.25 l 1025
166.666992188 499.916015625 m 1
 333.333984375 499.916015625 l 1
 333.333984375 583.25 l 1
 166.666992188 583.25 l 1
 166.666992188 499.916015625 l 1025
166.666992188 416.583007812 m 1
 333.333984375 416.583007812 l 1
 333.333984375 499.916015625 l 1
 166.666992188 499.916015625 l 1
 166.666992188 416.583007812 l 1025
83.3330078125 333.25 m 1
 166.666992188 333.25 l 1
 166.666992188 416.583007812 l 1
 83.3330078125 416.583007812 l 1
 83.3330078125 333.25 l 1025
250 333.25 m 1
 416.666992188 333.25 l 1
 416.666992188 416.583007812 l 1
 250 416.583007812 l 1
 250 333.25 l 1025
83.3330078125 249.916992188 m 1
 166.666992188 249.916992188 l 1
 166.666992188 333.25 l 1
 83.3330078125 333.25 l 1
 83.3330078125 249.916992188 l 1025
333.333984375 249.916992188 m 1
 416.666992188 249.916992188 l 1
 416.666992188 333.25 l 1
 333.333984375 333.25 l 1
 333.333984375 249.916992188 l 1025
83.3330078125 166.583984375 m 1
 416.666992188 166.583984375 l 1
 416.666992188 249.916992188 l 1
 83.3330078125 249.916992188 l 1
 83.3330078125 166.583984375 l 1025
0 83.25 m 1
 83.3330078125 83.25 l 1
 83.3330078125 166.583984375 l 1
 0 166.583984375 l 1
 0 83.25 l 1025
333.333984375 83.25 m 1
 416.666992188 83.25 l 1
 416.666992188 166.583984375 l 1
 333.333984375 166.583984375 l 1
 333.333984375 83.25 l 1025
0 -0.0830078125 m 1
 83.3330078125 -0.0830078125 l 1
 83.3330078125 83.25 l 1
 0 83.25 l 1
 0 -0.0830078125 l 1025
416.666992188 -0.0830078125 m 1
 416.666992188 83.25 l 1
 500 83.25 l 1
 500 -0.0830078125 l 1
 416.666992188 -0.0830078125 l 1
EndSplineSet
EndChar

StartChar: B
Encoding: 66 66 35
Width: 583
VWidth: 916
Flags: HW
LayerCount: 2
Back
Fore
SplineSet
83.3330078125 583.25 m 1
 500 583.25 l 1
 500 666.583007812 l 1
 83.3330078125 666.583007812 l 1
 83.3330078125 583.25 l 1025
83.3330078125 499.916015625 m 1
 166.666992188 499.916015625 l 1
 166.666992188 583.25 l 1
 83.3330078125 583.25 l 1
 83.3330078125 499.916015625 l 1025
416.666992188 499.916015625 m 1
 500 499.916015625 l 1
 500 583.25 l 1
 416.666992188 583.25 l 1
 416.666992188 499.916015625 l 1025
83.3330078125 416.583007812 m 1
 166.666992188 416.583007812 l 1
 166.666992188 499.916015625 l 1
 83.3330078125 499.916015625 l 1
 83.3330078125 416.583007812 l 1025
416.666992188 416.583007812 m 1
 500 416.583007812 l 1
 500 499.916015625 l 1
 416.666992188 499.916015625 l 1
 416.666992188 416.583007812 l 1025
83.3330078125 333.25 m 1
 416.666992188 333.25 l 1
 416.666992188 416.583007812 l 1
 83.3330078125 416.583007812 l 1
 83.3330078125 333.25 l 1025
83.3330078125 249.916992188 m 1
 166.666992188 249.916992188 l 1
 166.666992188 333.25 l 1
 83.3330078125 333.25 l 1
 83.3330078125 249.916992188 l 1025
333.333984375 249.916992188 m 1
 416.666992188 249.916992188 l 1
 416.666992188 333.25 l 1
 333.333984375 333.25 l 1
 333.333984375 249.916992188 l 1025
83.3330078125 166.583984375 m 1
 166.666992188 166.583984375 l 1
 166.666992188 249.916992188 l 1
 83.3330078125 249.916992188 l 1
 83.3330078125 166.583984375 l 1025
416.666992188 166.583984375 m 1
 500 166.583984375 l 1
 500 249.916992188 l 1
 416.666992188 249.916992188 l 1
 416.666992188 166.583984375 l 1025
83.3330078125 83.25 m 1
 166.666992188 83.25 l 1
 166.666992188 166.583984375 l 1
 83.3330078125 166.583984375 l 1
 83.3330078125 83.25 l 1025
416.666992188 83.25 m 1
 500 83.25 l 1
 500 166.583984375 l 1
 416.666992188 166.583984375 l 1
 416.666992188 83.25 l 1025
83.3330078125 -0.0830078125 m 1
 83.3330078125 83.25 l 1
 416.666992188 83.25 l 1
 416.666992188 -0.0830078125 l 1
 83.3330078125 -0.0830078125 l 1
EndSplineSet
EndChar

StartChar: C
Encoding: 67 67 36
Width: 583
VWidth: 916
Flags: HW
LayerCount: 2
Back
Fore
SplineSet
166.666992188 583.25 m 1
 500 583.25 l 1
 500 666.583007812 l 1
 166.666992188 666.583007812 l 1
 166.666992188 583.25 l 1025
83.3330078125 499.916015625 m 1
 166.666992188 499.916015625 l 1
 166.666992188 583.25 l 1
 83.3330078125 583.25 l 1
 83.3330078125 499.916015625 l 1025
0 416.583007812 m 1
 83.3330078125 416.583007812 l 1
 83.3330078125 499.916015625 l 1
 0 499.916015625 l 1
 0 416.583007812 l 1025
0 333.25 m 1
 83.3330078125 333.25 l 1
 83.3330078125 416.583007812 l 1
 0 416.583007812 l 1
 0 333.25 l 1025
0 249.916992188 m 1
 83.3330078125 249.916992188 l 1
 83.3330078125 333.25 l 1
 0 333.25 l 1
 0 249.916992188 l 1025
0 166.583984375 m 1
 83.3330078125 166.583984375 l 1
 83.3330078125 249.916992188 l 1
 0 249.916992188 l 1
 0 166.583984375 l 1025
83.3330078125 83.25 m 1
 166.666992188 83.25 l 1
 166.666992188 166.583984375 l 1
 83.3330078125 166.583984375 l 1
 83.3330078125 83.25 l 1025
166.666992188 -0.0830078125 m 1
 166.666992188 83.25 l 1
 500 83.25 l 1
 500 -0.0830078125 l 1
 166.666992188 -0.0830078125 l 1
EndSplineSet
EndChar

StartChar: D
Encoding: 68 68 37
Width: 583
VWidth: 916
Flags: HW
LayerCount: 2
Back
Fore
SplineSet
0 583.25 m 1
 416.666992188 583.25 l 1
 416.666992188 666.583007812 l 1
 0 666.583007812 l 1
 0 583.25 l 1025
0 499.916015625 m 1
 83.3330078125 499.916015625 l 1
 83.3330078125 583.25 l 1
 0 583.25 l 1
 0 499.916015625 l 1025
333.333984375 499.916015625 m 1
 500 499.916015625 l 1
 500 583.25 l 1
 333.333984375 583.25 l 1
 333.333984375 499.916015625 l 1025
0 416.583007812 m 1
 83.3330078125 416.583007812 l 1
 83.3330078125 499.916015625 l 1
 0 499.916015625 l 1
 0 416.583007812 l 1025
416.666992188 416.583007812 m 1
 500 416.583007812 l 1
 500 499.916015625 l 1
 416.666992188 499.916015625 l 1
 416.666992188 416.583007812 l 1025
0 333.25 m 1
 83.3330078125 333.25 l 1
 83.3330078125 416.583007812 l 1
 0 416.583007812 l 1
 0 333.25 l 1025
416.666992188 333.25 m 1
 500 333.25 l 1
 500 416.583007812 l 1
 416.666992188 416.583007812 l 1
 416.666992188 333.25 l 1025
0 249.916992188 m 1
 83.3330078125 249.916992188 l 1
 83.3330078125 333.25 l 1
 0 333.25 l 1
 0 249.916992188 l 1025
416.666992188 249.916992188 m 1
 500 249.916992188 l 1
 500 333.25 l 1
 416.666992188 333.25 l 1
 416.666992188 249.916992188 l 1025
0 166.583984375 m 1
 83.3330078125 166.583984375 l 1
 83.3330078125 249.916992188 l 1
 0 249.916992188 l 1
 0 166.583984375 l 1025
416.666992188 166.583984375 m 1
 500 166.583984375 l 1
 500 249.916992188 l 1
 416.666992188 249.916992188 l 1
 416.666992188 166.583984375 l 1025
0 83.25 m 1
 83.3330078125 83.25 l 1
 83.3330078125 166.583984375 l 1
 0 166.583984375 l 1
 0 83.25 l 1025
333.333984375 83.25 m 1
 500 83.25 l 1
 500 166.583984375 l 1
 333.333984375 166.583984375 l 1
 333.333984375 83.25 l 1025
0 -0.0830078125 m 1
 0 83.25 l 1
 416.666992188 83.25 l 1
 416.666992188 -0.0830078125 l 1
 0 -0.0830078125 l 1
EndSplineSet
EndChar

StartChar: E
Encoding: 69 69 38
Width: 583
VWidth: 916
Flags: HW
LayerCount: 2
Back
Fore
SplineSet
83.3330078125 583.25 m 1
 500 583.25 l 1
 500 666.583007812 l 1
 83.3330078125 666.583007812 l 1
 83.3330078125 583.25 l 1025
83.3330078125 499.916015625 m 1
 166.666992188 499.916015625 l 1
 166.666992188 583.25 l 1
 83.3330078125 583.25 l 1
 83.3330078125 499.916015625 l 1025
83.3330078125 416.583007812 m 1
 166.666992188 416.583007812 l 1
 166.666992188 499.916015625 l 1
 83.3330078125 499.916015625 l 1
 83.3330078125 416.583007812 l 1025
83.3330078125 333.25 m 1
 416.666992188 333.25 l 1
 416.666992188 416.583007812 l 1
 83.3330078125 416.583007812 l 1
 83.3330078125 333.25 l 1025
83.3330078125 249.916992188 m 1
 166.666992188 249.916992188 l 1
 166.666992188 333.25 l 1
 83.3330078125 333.25 l 1
 83.3330078125 249.916992188 l 1025
83.3330078125 166.583984375 m 1
 166.666992188 166.583984375 l 1
 166.666992188 249.916992188 l 1
 83.3330078125 249.916992188 l 1
 83.3330078125 166.583984375 l 1025
83.3330078125 83.25 m 1
 166.666992188 83.25 l 1
 166.666992188 166.583984375 l 1
 83.3330078125 166.583984375 l 1
 83.3330078125 83.25 l 1025
83.3330078125 -0.0830078125 m 1
 83.3330078125 83.25 l 1
 500 83.25 l 1
 500 -0.0830078125 l 1
 83.3330078125 -0.0830078125 l 1
EndSplineSet
EndChar

StartChar: F
Encoding: 70 70 39
Width: 583
VWidth: 916
Flags: HW
LayerCount: 2
Back
Fore
SplineSet
83.3330078125 583.25 m 1
 500 583.25 l 1
 500 666.583007812 l 1
 83.3330078125 666.583007812 l 1
 83.3330078125 583.25 l 1025
83.3330078125 499.916015625 m 1
 166.666992188 499.916015625 l 1
 166.666992188 583.25 l 1
 83.3330078125 583.25 l 1
 83.3330078125 499.916015625 l 1025
83.3330078125 416.583007812 m 1
 166.666992188 416.583007812 l 1
 166.666992188 499.916015625 l 1
 83.3330078125 499.916015625 l 1
 83.3330078125 416.583007812 l 1025
83.3330078125 333.25 m 1
 166.666992188 333.25 l 1
 166.666992188 416.583007812 l 1
 83.3330078125 416.583007812 l 1
 83.3330078125 333.25 l 1025
83.3330078125 249.916992188 m 1
 416.666992188 249.916992188 l 1
 416.666992188 333.25 l 1
 83.3330078125 333.25 l 1
 83.3330078125 249.916992188 l 1025
83.3330078125 166.583984375 m 1
 166.666992188 166.583984375 l 1
 166.666992188 249.916992188 l 1
 83.3330078125 249.916992188 l 1
 83.3330078125 166.583984375 l 1025
83.3330078125 83.25 m 1
 166.666992188 83.25 l 1
 166.666992188 166.583984375 l 1
 83.3330078125 166.583984375 l 1
 83.3330078125 83.25 l 1025
83.3330078125 -0.0830078125 m 1
 83.3330078125 83.25 l 1
 166.666992188 83.25 l 1
 166.666992188 -0.0830078125 l 1
 83.3330078125 -0.0830078125 l 1
EndSplineSet
EndChar

StartChar: G
Encoding: 71 71 40
Width: 583
VWidth: 916
Flags: HW
LayerCount: 2
Back
Fore
SplineSet
166.666992188 583.25 m 1
 500 583.25 l 1
 500 666.583007812 l 1
 166.666992188 666.583007812 l 1
 166.666992188 583.25 l 1025
83.3330078125 499.916015625 m 1
 166.666992188 499.916015625 l 1
 166.666992188 583.25 l 1
 83.3330078125 583.25 l 1
 83.3330078125 499.916015625 l 1025
0 416.583007812 m 1
 83.3330078125 416.583007812 l 1
 83.3330078125 499.916015625 l 1
 0 499.916015625 l 1
 0 416.583007812 l 1025
0 333.25 m 1
 83.3330078125 333.25 l 1
 83.3330078125 416.583007812 l 1
 0 416.583007812 l 1
 0 333.25 l 1025
0 249.916992188 m 1
 83.3330078125 249.916992188 l 1
 83.3330078125 333.25 l 1
 0 333.25 l 1
 0 249.916992188 l 1025
416.666992188 249.916992188 m 1
 500 249.916992188 l 1
 500 333.25 l 1
 416.666992188 333.25 l 1
 416.666992188 249.916992188 l 1025
0 166.583984375 m 1
 83.3330078125 166.583984375 l 1
 83.3330078125 249.916992188 l 1
 0 249.916992188 l 1
 0 166.583984375 l 1025
416.666992188 166.583984375 m 1
 500 166.583984375 l 1
 500 249.916992188 l 1
 416.666992188 249.916992188 l 1
 416.666992188 166.583984375 l 1025
83.3330078125 83.25 m 1
 166.666992188 83.25 l 1
 166.666992188 166.583984375 l 1
 83.3330078125 166.583984375 l 1
 83.3330078125 83.25 l 1025
416.666992188 83.25 m 1
 500 83.25 l 1
 500 166.583984375 l 1
 416.666992188 166.583984375 l 1
 416.666992188 83.25 l 1025
166.666992188 -0.0830078125 m 1
 166.666992188 83.25 l 1
 500 83.25 l 1
 500 -0.0830078125 l 1
 166.666992188 -0.0830078125 l 1
EndSplineSet
EndChar

StartChar: H
Encoding: 72 72 41
Width: 583
VWidth: 916
Flags: HW
LayerCount: 2
Back
Fore
SplineSet
83.3330078125 583.25 m 1
 166.666992188 583.25 l 1
 166.666992188 666.583007812 l 1
 83.3330078125 666.583007812 l 1
 83.3330078125 583.25 l 1025
416.666992188 583.25 m 1
 500 583.25 l 1
 500 666.583007812 l 1
 416.666992188 666.583007812 l 1
 416.666992188 583.25 l 1025
83.3330078125 499.916015625 m 1
 166.666992188 499.916015625 l 1
 166.666992188 583.25 l 1
 83.3330078125 583.25 l 1
 83.3330078125 499.916015625 l 1025
416.666992188 499.916015625 m 1
 500 499.916015625 l 1
 500 583.25 l 1
 416.666992188 583.25 l 1
 416.666992188 499.916015625 l 1025
83.3330078125 416.583007812 m 1
 166.666992188 416.583007812 l 1
 166.666992188 499.916015625 l 1
 83.3330078125 499.916015625 l 1
 83.3330078125 416.583007812 l 1025
416.666992188 416.583007812 m 1
 500 416.583007812 l 1
 500 499.916015625 l 1
 416.666992188 499.916015625 l 1
 416.666992188 416.583007812 l 1025
83.3330078125 333.25 m 1
 500 333.25 l 1
 500 416.583007812 l 1
 83.3330078125 416.583007812 l 1
 83.3330078125 333.25 l 1025
83.3330078125 249.916992188 m 1
 166.666992188 249.916992188 l 1
 166.666992188 333.25 l 1
 83.3330078125 333.25 l 1
 83.3330078125 249.916992188 l 1025
416.666992188 249.916992188 m 1
 500 249.916992188 l 1
 500 333.25 l 1
 416.666992188 333.25 l 1
 416.666992188 249.916992188 l 1025
83.3330078125 166.583984375 m 1
 166.666992188 166.583984375 l 1
 166.666992188 249.916992188 l 1
 83.3330078125 249.916992188 l 1
 83.3330078125 166.583984375 l 1025
416.666992188 166.583984375 m 1
 500 166.583984375 l 1
 500 249.916992188 l 1
 416.666992188 249.916992188 l 1
 416.666992188 166.583984375 l 1025
83.3330078125 83.25 m 1
 166.666992188 83.25 l 1
 166.666992188 166.583984375 l 1
 83.3330078125 166.583984375 l 1
 83.3330078125 83.25 l 1025
416.666992188 83.25 m 1
 500 83.25 l 1
 500 166.583984375 l 1
 416.666992188 166.583984375 l 1
 416.666992188 83.25 l 1025
83.3330078125 -0.0830078125 m 1
 166.666992188 -0.0830078125 l 1
 166.666992188 83.25 l 1
 83.3330078125 83.25 l 1
 83.3330078125 -0.0830078125 l 1025
416.666992188 -0.0830078125 m 1
 416.666992188 83.25 l 1
 500 83.25 l 1
 500 -0.0830078125 l 1
 416.666992188 -0.0830078125 l 1
EndSplineSet
EndChar

StartChar: I
Encoding: 73 73 42
Width: 583
VWidth: 916
Flags: HW
LayerCount: 2
Back
Fore
SplineSet
83.3330078125 583.25 m 1
 500 583.25 l 1
 500 666.583007812 l 1
 83.3330078125 666.583007812 l 1
 83.3330078125 583.25 l 1025
250 499.916015625 m 1
 333.333984375 499.916015625 l 1
 333.333984375 583.25 l 1
 250 583.25 l 1
 250 499.916015625 l 1025
250 416.583007812 m 1
 333.333984375 416.583007812 l 1
 333.333984375 499.916015625 l 1
 250 499.916015625 l 1
 250 416.583007812 l 1025
250 333.25 m 1
 333.333984375 333.25 l 1
 333.333984375 416.583007812 l 1
 250 416.583007812 l 1
 250 333.25 l 1025
250 249.916992188 m 1
 333.333984375 249.916992188 l 1
 333.333984375 333.25 l 1
 250 333.25 l 1
 250 249.916992188 l 1025
250 166.583984375 m 1
 333.333984375 166.583984375 l 1
 333.333984375 249.916992188 l 1
 250 249.916992188 l 1
 250 166.583984375 l 1025
250 83.25 m 1
 333.333984375 83.25 l 1
 333.333984375 166.583984375 l 1
 250 166.583984375 l 1
 250 83.25 l 1025
83.3330078125 -0.0830078125 m 1
 83.3330078125 83.25 l 1
 500 83.25 l 1
 500 -0.0830078125 l 1
 83.3330078125 -0.0830078125 l 1
EndSplineSet
EndChar

StartChar: J
Encoding: 74 74 43
Width: 583
VWidth: 916
Flags: HW
LayerCount: 2
Back
Fore
SplineSet
166.666992188 583.25 m 1
 416.666992188 583.25 l 1
 416.666992188 666.583007812 l 1
 166.666992188 666.583007812 l 1
 166.666992188 583.25 l 1025
333.333984375 499.916015625 m 1
 416.666992188 499.916015625 l 1
 416.666992188 583.25 l 1
 333.333984375 583.25 l 1
 333.333984375 499.916015625 l 1025
333.333984375 416.583007812 m 1
 416.666992188 416.583007812 l 1
 416.666992188 499.916015625 l 1
 333.333984375 499.916015625 l 1
 333.333984375 416.583007812 l 1025
333.333984375 333.25 m 1
 416.666992188 333.25 l 1
 416.666992188 416.583007812 l 1
 333.333984375 416.583007812 l 1
 333.333984375 333.25 l 1025
333.333984375 249.916992188 m 1
 416.666992188 249.916992188 l 1
 416.666992188 333.25 l 1
 333.333984375 333.25 l 1
 333.333984375 249.916992188 l 1025
333.333984375 166.583984375 m 1
 416.666992188 166.583984375 l 1
 416.666992188 249.916992188 l 1
 333.333984375 249.916992188 l 1
 333.333984375 166.583984375 l 1025
333.333984375 83.25 m 1
 416.666992188 83.25 l 1
 416.666992188 166.583984375 l 1
 333.333984375 166.583984375 l 1
 333.333984375 83.25 l 1025
83.3330078125 -0.0830078125 m 1
 83.3330078125 83.25 l 1
 333.333984375 83.25 l 1
 333.333984375 -0.0830078125 l 1
 83.3330078125 -0.0830078125 l 1
EndSplineSet
EndChar

StartChar: K
Encoding: 75 75 44
Width: 583
VWidth: 916
Flags: HW
LayerCount: 2
Back
Fore
SplineSet
83.3330078125 583.25 m 1
 166.666992188 583.25 l 1
 166.666992188 666.583007812 l 1
 83.3330078125 666.583007812 l 1
 83.3330078125 583.25 l 1025
416.666992188 583.25 m 1
 500 583.25 l 1
 500 666.583007812 l 1
 416.666992188 666.583007812 l 1
 416.666992188 583.25 l 1025
83.3330078125 499.916015625 m 1
 166.666992188 499.916015625 l 1
 166.666992188 583.25 l 1
 83.3330078125 583.25 l 1
 83.3330078125 499.916015625 l 1025
333.333984375 499.916015625 m 1
 416.666992188 499.916015625 l 1
 416.666992188 583.25 l 1
 333.333984375 583.25 l 1
 333.333984375 499.916015625 l 1025
83.3330078125 416.583007812 m 1
 166.666992188 416.583007812 l 1
 166.666992188 499.916015625 l 1
 83.3330078125 499.916015625 l 1
 83.3330078125 416.583007812 l 1025
250 416.583007812 m 1
 333.333984375 416.583007812 l 1
 333.333984375 499.916015625 l 1
 250 499.916015625 l 1
 250 416.583007812 l 1025
83.3330078125 333.25 m 1
 333.333984375 333.25 l 1
 333.333984375 416.583007812 l 1
 83.3330078125 416.583007812 l 1
 83.3330078125 333.25 l 1025
83.3330078125 249.916992188 m 1
 166.666992188 249.916992188 l 1
 166.666992188 333.25 l 1
 83.3330078125 333.25 l 1
 83.3330078125 249.916992188 l 1025
250 249.916992188 m 1
 333.333984375 249.916992188 l 1
 333.333984375 333.25 l 1
 250 333.25 l 1
 250 249.916992188 l 1025
83.3330078125 166.583984375 m 1
 166.666992188 166.583984375 l 1
 166.666992188 249.916992188 l 1
 83.3330078125 249.916992188 l 1
 83.3330078125 166.583984375 l 1025
250 166.583984375 m 1
 416.666992188 166.583984375 l 1
 416.666992188 249.916992188 l 1
 250 249.916992188 l 1
 250 166.583984375 l 1025
83.3330078125 83.25 m 1
 166.666992188 83.25 l 1
 166.666992188 166.583984375 l 1
 83.3330078125 166.583984375 l 1
 83.3330078125 83.25 l 1025
333.333984375 83.25 m 1
 500 83.25 l 1
 500 166.583984375 l 1
 333.333984375 166.583984375 l 1
 333.333984375 83.25 l 1025
83.3330078125 -0.0830078125 m 1
 166.666992188 -0.0830078125 l 1
 166.666992188 83.25 l 1
 83.3330078125 83.25 l 1
 83.3330078125 -0.0830078125 l 1025
416.666992188 -0.0830078125 m 1
 416.666992188 83.25 l 1
 583.333007812 83.25 l 1
 583.333007812 -0.0830078125 l 1
 416.666992188 -0.0830078125 l 1
EndSplineSet
EndChar

StartChar: L
Encoding: 76 76 45
Width: 583
VWidth: 916
Flags: HW
LayerCount: 2
Back
Fore
SplineSet
83.3330078125 583.25 m 1
 166.666992188 583.25 l 1
 166.666992188 666.583007812 l 1
 83.3330078125 666.583007812 l 1
 83.3330078125 583.25 l 1025
83.3330078125 499.916015625 m 1
 166.666992188 499.916015625 l 1
 166.666992188 583.25 l 1
 83.3330078125 583.25 l 1
 83.3330078125 499.916015625 l 1025
83.3330078125 416.583007812 m 1
 166.666992188 416.583007812 l 1
 166.666992188 499.916015625 l 1
 83.3330078125 499.916015625 l 1
 83.3330078125 416.583007812 l 1025
83.3330078125 333.25 m 1
 166.666992188 333.25 l 1
 166.666992188 416.583007812 l 1
 83.3330078125 416.583007812 l 1
 83.3330078125 333.25 l 1025
83.3330078125 249.916992188 m 1
 166.666992188 249.916992188 l 1
 166.666992188 333.25 l 1
 83.3330078125 333.25 l 1
 83.3330078125 249.916992188 l 1025
83.3330078125 166.583984375 m 1
 166.666992188 166.583984375 l 1
 166.666992188 249.916992188 l 1
 83.3330078125 249.916992188 l 1
 83.3330078125 166.583984375 l 1025
83.3330078125 83.25 m 1
 166.666992188 83.25 l 1
 166.666992188 166.583984375 l 1
 83.3330078125 166.583984375 l 1
 83.3330078125 83.25 l 1025
83.3330078125 -0.0830078125 m 1
 83.3330078125 83.25 l 1
 500 83.25 l 1
 500 -0.0830078125 l 1
 83.3330078125 -0.0830078125 l 1
EndSplineSet
EndChar

StartChar: M
Encoding: 77 77 46
Width: 583
VWidth: 916
Flags: HW
LayerCount: 2
Back
Fore
SplineSet
0 583.25 m 1
 166.666992188 583.25 l 1
 166.666992188 666.583007812 l 1
 0 666.583007812 l 1
 0 583.25 l 1025
333.333984375 583.25 m 1
 500 583.25 l 1
 500 666.583007812 l 1
 333.333984375 666.583007812 l 1
 333.333984375 583.25 l 1025
0 499.916015625 m 1
 166.666992188 499.916015625 l 1
 166.666992188 583.25 l 1
 0 583.25 l 1
 0 499.916015625 l 1025
333.333984375 499.916015625 m 1
 500 499.916015625 l 1
 500 583.25 l 1
 333.333984375 583.25 l 1
 333.333984375 499.916015625 l 1025
0 416.583007812 m 1
 166.666992188 416.583007812 l 1
 166.666992188 499.916015625 l 1
 0 499.916015625 l 1
 0 416.583007812 l 1025
333.333984375 416.583007812 m 1
 500 416.583007812 l 1
 500 499.916015625 l 1
 333.333984375 499.916015625 l 1
 333.333984375 416.583007812 l 1025
0 333.25 m 1
 166.666992188 333.25 l 1
 166.666992188 416.583007812 l 1
 0 416.583007812 l 1
 0 333.25 l 1025
333.333984375 333.25 m 1
 500 333.25 l 1
 500 416.583007812 l 1
 333.333984375 416.583007812 l 1
 333.333984375 333.25 l 1025
0 249.916992188 m 1
 83.3330078125 249.916992188 l 1
 83.3330078125 333.25 l 1
 0 333.25 l 1
 0 249.916992188 l 1025
166.666992188 249.916992188 m 1
 333.333984375 249.916992188 l 1
 333.333984375 333.25 l 1
 166.666992188 333.25 l 1
 166.666992188 249.916992188 l 1025
416.666992188 249.916992188 m 1
 500 249.916992188 l 1
 500 333.25 l 1
 416.666992188 333.25 l 1
 416.666992188 249.916992188 l 1025
0 166.583984375 m 1
 83.3330078125 166.583984375 l 1
 83.3330078125 249.916992188 l 1
 0 249.916992188 l 1
 0 166.583984375 l 1025
166.666992188 166.583984375 m 1
 333.333984375 166.583984375 l 1
 333.333984375 249.916992188 l 1
 166.666992188 249.916992188 l 1
 166.666992188 166.583984375 l 1025
416.666992188 166.583984375 m 1
 500 166.583984375 l 1
 500 249.916992188 l 1
 416.666992188 249.916992188 l 1
 416.666992188 166.583984375 l 1025
0 83.25 m 1
 83.3330078125 83.25 l 1
 83.3330078125 166.583984375 l 1
 0 166.583984375 l 1
 0 83.25 l 1025
166.666992188 83.25 m 1
 333.333984375 83.25 l 1
 333.333984375 166.583984375 l 1
 166.666992188 166.583984375 l 1
 166.666992188 83.25 l 1025
416.666992188 83.25 m 1
 500 83.25 l 1
 500 166.583984375 l 1
 416.666992188 166.583984375 l 1
 416.666992188 83.25 l 1025
0 -0.0830078125 m 1
 83.3330078125 -0.0830078125 l 1
 83.3330078125 83.25 l 1
 0 83.25 l 1
 0 -0.0830078125 l 1025
416.666992188 -0.0830078125 m 1
 416.666992188 83.25 l 1
 500 83.25 l 1
 500 -0.0830078125 l 1
 416.666992188 -0.0830078125 l 1
EndSplineSet
EndChar

StartChar: N
Encoding: 78 78 47
Width: 583
VWidth: 916
Flags: HW
LayerCount: 2
Back
Fore
SplineSet
83.3330078125 583.25 m 1
 166.666992188 583.25 l 1
 166.666992188 666.583007812 l 1
 83.3330078125 666.583007812 l 1
 83.3330078125 583.25 l 1025
416.666992188 583.25 m 1
 500 583.25 l 1
 500 666.583007812 l 1
 416.666992188 666.583007812 l 1
 416.666992188 583.25 l 1025
83.3330078125 499.916015625 m 1
 250 499.916015625 l 1
 250 583.25 l 1
 83.3330078125 583.25 l 1
 83.3330078125 499.916015625 l 1025
416.666992188 499.916015625 m 1
 500 499.916015625 l 1
 500 583.25 l 1
 416.666992188 583.25 l 1
 416.666992188 499.916015625 l 1025
83.3330078125 416.583007812 m 1
 250 416.583007812 l 1
 250 499.916015625 l 1
 83.3330078125 499.916015625 l 1
 83.3330078125 416.583007812 l 1025
416.666992188 416.583007812 m 1
 500 416.583007812 l 1
 500 499.916015625 l 1
 416.666992188 499.916015625 l 1
 416.666992188 416.583007812 l 1025
83.3330078125 333.25 m 1
 166.666992188 333.25 l 1
 166.666992188 416.583007812 l 1
 83.3330078125 416.583007812 l 1
 83.3330078125 333.25 l 1025
250 333.25 m 1
 333.333984375 333.25 l 1
 333.333984375 416.583007812 l 1
 250 416.583007812 l 1
 250 333.25 l 1025
416.666992188 333.25 m 1
 500 333.25 l 1
 500 416.583007812 l 1
 416.666992188 416.583007812 l 1
 416.666992188 333.25 l 1025
83.3330078125 249.916992188 m 1
 166.666992188 249.916992188 l 1
 166.666992188 333.25 l 1
 83.3330078125 333.25 l 1
 83.3330078125 249.916992188 l 1025
250 249.916992188 m 1
 333.333984375 249.916992188 l 1
 333.333984375 333.25 l 1
 250 333.25 l 1
 250 249.916992188 l 1025
416.666992188 249.916992188 m 1
 500 249.916992188 l 1
 500 333.25 l 1
 416.666992188 333.25 l 1
 416.666992188 249.916992188 l 1025
83.3330078125 166.583984375 m 1
 166.666992188 166.583984375 l 1
 166.666992188 249.916992188 l 1
 83.3330078125 249.916992188 l 1
 83.3330078125 166.583984375 l 1025
333.333984375 166.583984375 m 1
 500 166.583984375 l 1
 500 249.916992188 l 1
 333.333984375 249.916992188 l 1
 333.333984375 166.583984375 l 1025
83.3330078125 83.25 m 1
 166.666992188 83.25 l 1
 166.666992188 166.583984375 l 1
 83.3330078125 166.583984375 l 1
 83.3330078125 83.25 l 1025
333.333984375 83.25 m 1
 500 83.25 l 1
 500 166.583984375 l 1
 333.333984375 166.583984375 l 1
 333.333984375 83.25 l 1025
83.3330078125 -0.0830078125 m 1
 166.666992188 -0.0830078125 l 1
 166.666992188 83.25 l 1
 83.3330078125 83.25 l 1
 83.3330078125 -0.0830078125 l 1025
416.666992188 -0.0830078125 m 1
 416.666992188 83.25 l 1
 500 83.25 l 1
 500 -0.0830078125 l 1
 416.666992188 -0.0830078125 l 1
EndSplineSet
EndChar

StartChar: O
Encoding: 79 79 48
Width: 583
VWidth: 916
Flags: HW
LayerCount: 2
Back
Fore
SplineSet
83.3330078125 583.25 m 1
 416.666992188 583.25 l 1
 416.666992188 666.583007812 l 1
 83.3330078125 666.583007812 l 1
 83.3330078125 583.25 l 1025
83.3330078125 499.916015625 m 1
 166.666992188 499.916015625 l 1
 166.666992188 583.25 l 1
 83.3330078125 583.25 l 1
 83.3330078125 499.916015625 l 1025
333.333984375 499.916015625 m 1
 416.666992188 499.916015625 l 1
 416.666992188 583.25 l 1
 333.333984375 583.25 l 1
 333.333984375 499.916015625 l 1025
0 416.583007812 m 1
 83.3330078125 416.583007812 l 1
 83.3330078125 499.916015625 l 1
 0 499.916015625 l 1
 0 416.583007812 l 1025
416.666992188 416.583007812 m 1
 500 416.583007812 l 1
 500 499.916015625 l 1
 416.666992188 499.916015625 l 1
 416.666992188 416.583007812 l 1025
0 333.25 m 1
 83.3330078125 333.25 l 1
 83.3330078125 416.583007812 l 1
 0 416.583007812 l 1
 0 333.25 l 1025
416.666992188 333.25 m 1
 500 333.25 l 1
 500 416.583007812 l 1
 416.666992188 416.583007812 l 1
 416.666992188 333.25 l 1025
0 249.916992188 m 1
 83.3330078125 249.916992188 l 1
 83.3330078125 333.25 l 1
 0 333.25 l 1
 0 249.916992188 l 1025
416.666992188 249.916992188 m 1
 500 249.916992188 l 1
 500 333.25 l 1
 416.666992188 333.25 l 1
 416.666992188 249.916992188 l 1025
0 166.583984375 m 1
 83.3330078125 166.583984375 l 1
 83.3330078125 249.916992188 l 1
 0 249.916992188 l 1
 0 166.583984375 l 1025
416.666992188 166.583984375 m 1
 500 166.583984375 l 1
 500 249.916992188 l 1
 416.666992188 249.916992188 l 1
 416.666992188 166.583984375 l 1025
83.3330078125 83.25 m 1
 166.666992188 83.25 l 1
 166.666992188 166.583984375 l 1
 83.3330078125 166.583984375 l 1
 83.3330078125 83.25 l 1025
333.333984375 83.25 m 1
 416.666992188 83.25 l 1
 416.666992188 166.583984375 l 1
 333.333984375 166.583984375 l 1
 333.333984375 83.25 l 1025
83.3330078125 -0.0830078125 m 1
 83.3330078125 83.25 l 1
 416.666992188 83.25 l 1
 416.666992188 -0.0830078125 l 1
 83.3330078125 -0.0830078125 l 1
EndSplineSet
EndChar

StartChar: P
Encoding: 80 80 49
Width: 583
VWidth: 916
Flags: HW
LayerCount: 2
Back
Fore
SplineSet
83.3330078125 583.25 m 1
 500 583.25 l 1
 500 666.583007812 l 1
 83.3330078125 666.583007812 l 1
 83.3330078125 583.25 l 1025
83.3330078125 499.916015625 m 1
 166.666992188 499.916015625 l 1
 166.666992188 583.25 l 1
 83.3330078125 583.25 l 1
 83.3330078125 499.916015625 l 1025
416.666992188 499.916015625 m 1
 500 499.916015625 l 1
 500 583.25 l 1
 416.666992188 583.25 l 1
 416.666992188 499.916015625 l 1025
83.3330078125 416.583007812 m 1
 166.666992188 416.583007812 l 1
 166.666992188 499.916015625 l 1
 83.3330078125 499.916015625 l 1
 83.3330078125 416.583007812 l 1025
416.666992188 416.583007812 m 1
 500 416.583007812 l 1
 500 499.916015625 l 1
 416.666992188 499.916015625 l 1
 416.666992188 416.583007812 l 1025
83.3330078125 333.25 m 1
 166.666992188 333.25 l 1
 166.666992188 416.583007812 l 1
 83.3330078125 416.583007812 l 1
 83.3330078125 333.25 l 1025
416.666992188 333.25 m 1
 500 333.25 l 1
 500 416.583007812 l 1
 416.666992188 416.583007812 l 1
 416.666992188 333.25 l 1025
83.3330078125 249.916992188 m 1
 416.666992188 249.916992188 l 1
 416.666992188 333.25 l 1
 83.3330078125 333.25 l 1
 83.3330078125 249.916992188 l 1025
83.3330078125 166.583984375 m 1
 166.666992188 166.583984375 l 1
 166.666992188 249.916992188 l 1
 83.3330078125 249.916992188 l 1
 83.3330078125 166.583984375 l 1025
83.3330078125 83.25 m 1
 166.666992188 83.25 l 1
 166.666992188 166.583984375 l 1
 83.3330078125 166.583984375 l 1
 83.3330078125 83.25 l 1025
83.3330078125 -0.0830078125 m 1
 83.3330078125 83.25 l 1
 166.666992188 83.25 l 1
 166.666992188 -0.0830078125 l 1
 83.3330078125 -0.0830078125 l 1
EndSplineSet
EndChar

StartChar: Q
Encoding: 81 81 50
Width: 583
VWidth: 916
Flags: HW
LayerCount: 2
Back
Fore
SplineSet
166.666992188 583.25 m 1
 500 583.25 l 1
 500 666.583007812 l 1
 166.666992188 666.583007812 l 1
 166.666992188 583.25 l 1025
166.666992188 499.916015625 m 1
 250 499.916015625 l 1
 250 583.25 l 1
 166.666992188 583.25 l 1
 166.666992188 499.916015625 l 1025
416.666992188 499.916015625 m 1
 500 499.916015625 l 1
 500 583.25 l 1
 416.666992188 583.25 l 1
 416.666992188 499.916015625 l 1025
83.3330078125 416.583007812 m 1
 166.666992188 416.583007812 l 1
 166.666992188 499.916015625 l 1
 83.3330078125 499.916015625 l 1
 83.3330078125 416.583007812 l 1025
500 416.583007812 m 1
 583.333007812 416.583007812 l 1
 583.333007812 499.916015625 l 1
 500 499.916015625 l 1
 500 416.583007812 l 1025
83.3330078125 333.25 m 1
 166.666992188 333.25 l 1
 166.666992188 416.583007812 l 1
 83.3330078125 416.583007812 l 1
 83.3330078125 333.25 l 1025
500 333.25 m 1
 583.333007812 333.25 l 1
 583.333007812 416.583007812 l 1
 500 416.583007812 l 1
 500 333.25 l 1025
83.3330078125 249.916992188 m 1
 166.666992188 249.916992188 l 1
 166.666992188 333.25 l 1
 83.3330078125 333.25 l 1
 83.3330078125 249.916992188 l 1025
500 249.916992188 m 1
 583.333007812 249.916992188 l 1
 583.333007812 333.25 l 1
 500 333.25 l 1
 500 249.916992188 l 1025
83.3330078125 166.583984375 m 1
 166.666992188 166.583984375 l 1
 166.666992188 249.916992188 l 1
 83.3330078125 249.916992188 l 1
 83.3330078125 166.583984375 l 1025
500 166.583984375 m 1
 583.333007812 166.583984375 l 1
 583.333007812 249.916992188 l 1
 500 249.916992188 l 1
 500 166.583984375 l 1025
166.666992188 83.25 m 1
 250 83.25 l 1
 250 166.583984375 l 1
 166.666992188 166.583984375 l 1
 166.666992188 83.25 l 1025
416.666992188 83.25 m 1
 583.333007812 83.25 l 1
 583.333007812 166.583984375 l 1
 416.666992188 166.583984375 l 1
 416.666992188 83.25 l 1025
166.666992188 -0.0830078125 m 1
 500 -0.0830078125 l 1
 500 83.25 l 1
 166.666992188 83.25 l 1
 166.666992188 -0.0830078125 l 1025
416.666992188 -83.4169921875 m 1
 500 -83.4169921875 l 1
 500 -0.0830078125 l 1
 416.666992188 -0.0830078125 l 1
 416.666992188 -83.4169921875 l 1025
500 -166.75 m 1
 500 -83.4169921875 l 1
 583.333007812 -83.4169921875 l 1
 583.333007812 -166.75 l 1
 500 -166.75 l 1
EndSplineSet
EndChar

StartChar: R
Encoding: 82 82 51
Width: 583
VWidth: 916
Flags: HW
LayerCount: 2
Back
Fore
SplineSet
83.3330078125 583.25 m 1
 500 583.25 l 1
 500 666.583007812 l 1
 83.3330078125 666.583007812 l 1
 83.3330078125 583.25 l 1025
83.3330078125 499.916015625 m 1
 166.666992188 499.916015625 l 1
 166.666992188 583.25 l 1
 83.3330078125 583.25 l 1
 83.3330078125 499.916015625 l 1025
416.666992188 499.916015625 m 1
 500 499.916015625 l 1
 500 583.25 l 1
 416.666992188 583.25 l 1
 416.666992188 499.916015625 l 1025
83.3330078125 416.583007812 m 1
 166.666992188 416.583007812 l 1
 166.666992188 499.916015625 l 1
 83.3330078125 499.916015625 l 1
 83.3330078125 416.583007812 l 1025
416.666992188 416.583007812 m 1
 500 416.583007812 l 1
 500 499.916015625 l 1
 416.666992188 499.916015625 l 1
 416.666992188 416.583007812 l 1025
83.3330078125 333.25 m 1
 166.666992188 333.25 l 1
 166.666992188 416.583007812 l 1
 83.3330078125 416.583007812 l 1
 83.3330078125 333.25 l 1025
333.333984375 333.25 m 1
 500 333.25 l 1
 500 416.583007812 l 1
 333.333984375 416.583007812 l 1
 333.333984375 333.25 l 1025
83.3330078125 249.916992188 m 1
 333.333984375 249.916992188 l 1
 333.333984375 333.25 l 1
 83.3330078125 333.25 l 1
 83.3330078125 249.916992188 l 1025
83.3330078125 166.583984375 m 1
 166.666992188 166.583984375 l 1
 166.666992188 249.916992188 l 1
 83.3330078125 249.916992188 l 1
 83.3330078125 166.583984375 l 1025
333.333984375 166.583984375 m 1
 416.666992188 166.583984375 l 1
 416.666992188 249.916992188 l 1
 333.333984375 249.916992188 l 1
 333.333984375 166.583984375 l 1025
83.3330078125 83.25 m 1
 166.666992188 83.25 l 1
 166.666992188 166.583984375 l 1
 83.3330078125 166.583984375 l 1
 83.3330078125 83.25 l 1025
416.666992188 83.25 m 1
 500 83.25 l 1
 500 166.583984375 l 1
 416.666992188 166.583984375 l 1
 416.666992188 83.25 l 1025
83.3330078125 -0.0830078125 m 1
 166.666992188 -0.0830078125 l 1
 166.666992188 83.25 l 1
 83.3330078125 83.25 l 1
 83.3330078125 -0.0830078125 l 1025
416.666992188 -0.0830078125 m 1
 416.666992188 83.25 l 1
 583.333007812 83.25 l 1
 583.333007812 -0.0830078125 l 1
 416.666992188 -0.0830078125 l 1
EndSplineSet
EndChar

StartChar: S
Encoding: 83 83 52
Width: 583
VWidth: 916
Flags: HW
LayerCount: 2
Back
Fore
SplineSet
166.666992188 583.25 m 1
 416.666992188 583.25 l 1
 416.666992188 666.583007812 l 1
 166.666992188 666.583007812 l 1
 166.666992188 583.25 l 1025
83.3330078125 499.916015625 m 1
 166.666992188 499.916015625 l 1
 166.666992188 583.25 l 1
 83.3330078125 583.25 l 1
 83.3330078125 499.916015625 l 1025
83.3330078125 416.583007812 m 1
 166.666992188 416.583007812 l 1
 166.666992188 499.916015625 l 1
 83.3330078125 499.916015625 l 1
 83.3330078125 416.583007812 l 1025
166.666992188 333.25 m 1
 333.333984375 333.25 l 1
 333.333984375 416.583007812 l 1
 166.666992188 416.583007812 l 1
 166.666992188 333.25 l 1025
333.333984375 249.916992188 m 1
 500 249.916992188 l 1
 500 333.25 l 1
 333.333984375 333.25 l 1
 333.333984375 249.916992188 l 1025
416.666992188 166.583984375 m 1
 500 166.583984375 l 1
 500 249.916992188 l 1
 416.666992188 249.916992188 l 1
 416.666992188 166.583984375 l 1025
83.3330078125 83.25 m 1
 166.666992188 83.25 l 1
 166.666992188 166.583984375 l 1
 83.3330078125 166.583984375 l 1
 83.3330078125 83.25 l 1025
416.666992188 83.25 m 1
 500 83.25 l 1
 500 166.583984375 l 1
 416.666992188 166.583984375 l 1
 416.666992188 83.25 l 1025
83.3330078125 -0.0830078125 m 1
 83.3330078125 83.25 l 1
 416.666992188 83.25 l 1
 416.666992188 -0.0830078125 l 1
 83.3330078125 -0.0830078125 l 1
EndSplineSet
EndChar

StartChar: T
Encoding: 84 84 53
Width: 583
VWidth: 916
Flags: HW
LayerCount: 2
Back
Fore
SplineSet
0 583.25 m 1
 583.333007812 583.25 l 1
 583.333007812 666.583007812 l 1
 0 666.583007812 l 1
 0 583.25 l 1025
250 499.916015625 m 1
 333.333984375 499.916015625 l 1
 333.333984375 583.25 l 1
 250 583.25 l 1
 250 499.916015625 l 1025
250 416.583007812 m 1
 333.333984375 416.583007812 l 1
 333.333984375 499.916015625 l 1
 250 499.916015625 l 1
 250 416.583007812 l 1025
250 333.25 m 1
 333.333984375 333.25 l 1
 333.333984375 416.583007812 l 1
 250 416.583007812 l 1
 250 333.25 l 1025
250 249.916992188 m 1
 333.333984375 249.916992188 l 1
 333.333984375 333.25 l 1
 250 333.25 l 1
 250 249.916992188 l 1025
250 166.583984375 m 1
 333.333984375 166.583984375 l 1
 333.333984375 249.916992188 l 1
 250 249.916992188 l 1
 250 166.583984375 l 1025
250 83.25 m 1
 333.333984375 83.25 l 1
 333.333984375 166.583984375 l 1
 250 166.583984375 l 1
 250 83.25 l 1025
250 -0.0830078125 m 1
 250 83.25 l 1
 333.333984375 83.25 l 1
 333.333984375 -0.0830078125 l 1
 250 -0.0830078125 l 1
EndSplineSet
EndChar

StartChar: U
Encoding: 85 85 54
Width: 583
VWidth: 916
Flags: HW
LayerCount: 2
Back
Fore
SplineSet
83.3330078125 583.25 m 1
 166.666992188 583.25 l 1
 166.666992188 666.583007812 l 1
 83.3330078125 666.583007812 l 1
 83.3330078125 583.25 l 1025
416.666992188 583.25 m 1
 500 583.25 l 1
 500 666.583007812 l 1
 416.666992188 666.583007812 l 1
 416.666992188 583.25 l 1025
83.3330078125 499.916015625 m 1
 166.666992188 499.916015625 l 1
 166.666992188 583.25 l 1
 83.3330078125 583.25 l 1
 83.3330078125 499.916015625 l 1025
416.666992188 499.916015625 m 1
 500 499.916015625 l 1
 500 583.25 l 1
 416.666992188 583.25 l 1
 416.666992188 499.916015625 l 1025
83.3330078125 416.583007812 m 1
 166.666992188 416.583007812 l 1
 166.666992188 499.916015625 l 1
 83.3330078125 499.916015625 l 1
 83.3330078125 416.583007812 l 1025
416.666992188 416.583007812 m 1
 500 416.583007812 l 1
 500 499.916015625 l 1
 416.666992188 499.916015625 l 1
 416.666992188 416.583007812 l 1025
83.3330078125 333.25 m 1
 166.666992188 333.25 l 1
 166.666992188 416.583007812 l 1
 83.3330078125 416.583007812 l 1
 83.3330078125 333.25 l 1025
416.666992188 333.25 m 1
 500 333.25 l 1
 500 416.583007812 l 1
 416.666992188 416.583007812 l 1
 416.666992188 333.25 l 1025
83.3330078125 249.916992188 m 1
 166.666992188 249.916992188 l 1
 166.666992188 333.25 l 1
 83.3330078125 333.25 l 1
 83.3330078125 249.916992188 l 1025
416.666992188 249.916992188 m 1
 500 249.916992188 l 1
 500 333.25 l 1
 416.666992188 333.25 l 1
 416.666992188 249.916992188 l 1025
83.3330078125 166.583984375 m 1
 166.666992188 166.583984375 l 1
 166.666992188 249.916992188 l 1
 83.3330078125 249.916992188 l 1
 83.3330078125 166.583984375 l 1025
416.666992188 166.583984375 m 1
 500 166.583984375 l 1
 500 249.916992188 l 1
 416.666992188 249.916992188 l 1
 416.666992188 166.583984375 l 1025
83.3330078125 83.25 m 1
 166.666992188 83.25 l 1
 166.666992188 166.583984375 l 1
 83.3330078125 166.583984375 l 1
 83.3330078125 83.25 l 1025
416.666992188 83.25 m 1
 500 83.25 l 1
 500 166.583984375 l 1
 416.666992188 166.583984375 l 1
 416.666992188 83.25 l 1025
166.666992188 -0.0830078125 m 1
 166.666992188 83.25 l 1
 416.666992188 83.25 l 1
 416.666992188 -0.0830078125 l 1
 166.666992188 -0.0830078125 l 1
EndSplineSet
EndChar

StartChar: V
Encoding: 86 86 55
Width: 583
VWidth: 916
Flags: HW
LayerCount: 2
Back
Fore
SplineSet
0 583.25 m 1
 83.3330078125 583.25 l 1
 83.3330078125 666.583007812 l 1
 0 666.583007812 l 1
 0 583.25 l 1025
416.666992188 583.25 m 1
 500 583.25 l 1
 500 666.583007812 l 1
 416.666992188 666.583007812 l 1
 416.666992188 583.25 l 1025
0 499.916015625 m 1
 83.3330078125 499.916015625 l 1
 83.3330078125 583.25 l 1
 0 583.25 l 1
 0 499.916015625 l 1025
416.666992188 499.916015625 m 1
 500 499.916015625 l 1
 500 583.25 l 1
 416.666992188 583.25 l 1
 416.666992188 499.916015625 l 1025
83.3330078125 416.583007812 m 1
 166.666992188 416.583007812 l 1
 166.666992188 499.916015625 l 1
 83.3330078125 499.916015625 l 1
 83.3330078125 416.583007812 l 1025
333.333984375 416.583007812 m 1
 416.666992188 416.583007812 l 1
 416.666992188 499.916015625 l 1
 333.333984375 499.916015625 l 1
 333.333984375 416.583007812 l 1025
83.3330078125 333.25 m 1
 166.666992188 333.25 l 1
 166.666992188 416.583007812 l 1
 83.3330078125 416.583007812 l 1
 83.3330078125 333.25 l 1025
333.333984375 333.25 m 1
 416.666992188 333.25 l 1
 416.666992188 416.583007812 l 1
 333.333984375 416.583007812 l 1
 333.333984375 333.25 l 1025
83.3330078125 249.916992188 m 1
 166.666992188 249.916992188 l 1
 166.666992188 333.25 l 1
 83.3330078125 333.25 l 1
 83.3330078125 249.916992188 l 1025
333.333984375 249.916992188 m 1
 416.666992188 249.916992188 l 1
 416.666992188 333.25 l 1
 333.333984375 333.25 l 1
 333.333984375 249.916992188 l 1025
166.666992188 166.583984375 m 1
 333.333984375 166.583984375 l 1
 333.333984375 249.916992188 l 1
 166.666992188 249.916992188 l 1
 166.666992188 166.583984375 l 1025
166.666992188 83.25 m 1
 333.333984375 83.25 l 1
 333.333984375 166.583984375 l 1
 166.666992188 166.583984375 l 1
 166.666992188 83.25 l 1025
166.666992188 -0.0830078125 m 1
 166.666992188 83.25 l 1
 333.333984375 83.25 l 1
 333.333984375 -0.0830078125 l 1
 166.666992188 -0.0830078125 l 1
EndSplineSet
EndChar

StartChar: W
Encoding: 87 87 56
Width: 583
VWidth: 916
Flags: HW
LayerCount: 2
Back
Fore
SplineSet
0 583.25 m 1
 83.3330078125 583.25 l 1
 83.3330078125 666.583007812 l 1
 0 666.583007812 l 1
 0 583.25 l 1025
500 583.25 m 1
 583.333007812 583.25 l 1
 583.333007812 666.583007812 l 1
 500 666.583007812 l 1
 500 583.25 l 1025
0 499.916015625 m 1
 83.3330078125 499.916015625 l 1
 83.3330078125 583.25 l 1
 0 583.25 l 1
 0 499.916015625 l 1025
250 499.916015625 m 1
 333.333984375 499.916015625 l 1
 333.333984375 583.25 l 1
 250 583.25 l 1
 250 499.916015625 l 1025
500 499.916015625 m 1
 583.333007812 499.916015625 l 1
 583.333007812 583.25 l 1
 500 583.25 l 1
 500 499.916015625 l 1025
0 416.583007812 m 1
 83.3330078125 416.583007812 l 1
 83.3330078125 499.916015625 l 1
 0 499.916015625 l 1
 0 416.583007812 l 1025
166.666992188 416.583007812 m 1
 250 416.583007812 l 1
 250 499.916015625 l 1
 166.666992188 499.916015625 l 1
 166.666992188 416.583007812 l 1025
333.333984375 416.583007812 m 1
 416.666992188 416.583007812 l 1
 416.666992188 499.916015625 l 1
 333.333984375 499.916015625 l 1
 333.333984375 416.583007812 l 1025
500 416.583007812 m 1
 583.333007812 416.583007812 l 1
 583.333007812 499.916015625 l 1
 500 499.916015625 l 1
 500 416.583007812 l 1025
0 333.25 m 1
 83.3330078125 333.25 l 1
 83.3330078125 416.583007812 l 1
 0 416.583007812 l 1
 0 333.25 l 1025
166.666992188 333.25 m 1
 250 333.25 l 1
 250 416.583007812 l 1
 166.666992188 416.583007812 l 1
 166.666992188 333.25 l 1025
333.333984375 333.25 m 1
 583.333007812 333.25 l 1
 583.333007812 416.583007812 l 1
 333.333984375 416.583007812 l 1
 333.333984375 333.25 l 1025
83.3330078125 249.916992188 m 1
 250 249.916992188 l 1
 250 333.25 l 1
 83.3330078125 333.25 l 1
 83.3330078125 249.916992188 l 1025
333.333984375 249.916992188 m 1
 500 249.916992188 l 1
 500 333.25 l 1
 333.333984375 333.25 l 1
 333.333984375 249.916992188 l 1025
83.3330078125 166.583984375 m 1
 250 166.583984375 l 1
 250 249.916992188 l 1
 83.3330078125 249.916992188 l 1
 83.3330078125 166.583984375 l 1025
333.333984375 166.583984375 m 1
 500 166.583984375 l 1
 500 249.916992188 l 1
 333.333984375 249.916992188 l 1
 333.333984375 166.583984375 l 1025
83.3330078125 83.25 m 1
 250 83.25 l 1
 250 166.583984375 l 1
 83.3330078125 166.583984375 l 1
 83.3330078125 83.25 l 1025
416.666992188 83.25 m 1
 500 83.25 l 1
 500 166.583984375 l 1
 416.666992188 166.583984375 l 1
 416.666992188 83.25 l 1025
83.3330078125 -0.0830078125 m 1
 166.666992188 -0.0830078125 l 1
 166.666992188 83.25 l 1
 83.3330078125 83.25 l 1
 83.3330078125 -0.0830078125 l 1025
416.666992188 -0.0830078125 m 1
 416.666992188 83.25 l 1
 500 83.25 l 1
 500 -0.0830078125 l 1
 416.666992188 -0.0830078125 l 1
EndSplineSet
EndChar

StartChar: X
Encoding: 88 88 57
Width: 583
VWidth: 916
Flags: HW
LayerCount: 2
Back
Fore
SplineSet
0 583.25 m 1
 166.666992188 583.25 l 1
 166.666992188 666.583007812 l 1
 0 666.583007812 l 1
 0 583.25 l 1025
416.666992188 583.25 m 1
 500 583.25 l 1
 500 666.583007812 l 1
 416.666992188 666.583007812 l 1
 416.666992188 583.25 l 1025
83.3330078125 499.916015625 m 1
 166.666992188 499.916015625 l 1
 166.666992188 583.25 l 1
 83.3330078125 583.25 l 1
 83.3330078125 499.916015625 l 1025
333.333984375 499.916015625 m 1
 416.666992188 499.916015625 l 1
 416.666992188 583.25 l 1
 333.333984375 583.25 l 1
 333.333984375 499.916015625 l 1025
166.666992188 416.583007812 m 1
 333.333984375 416.583007812 l 1
 333.333984375 499.916015625 l 1
 166.666992188 499.916015625 l 1
 166.666992188 416.583007812 l 1025
166.666992188 333.25 m 1
 333.333984375 333.25 l 1
 333.333984375 416.583007812 l 1
 166.666992188 416.583007812 l 1
 166.666992188 333.25 l 1025
166.666992188 249.916992188 m 1
 333.333984375 249.916992188 l 1
 333.333984375 333.25 l 1
 166.666992188 333.25 l 1
 166.666992188 249.916992188 l 1025
83.3330078125 166.583984375 m 1
 416.666992188 166.583984375 l 1
 416.666992188 249.916992188 l 1
 83.3330078125 249.916992188 l 1
 83.3330078125 166.583984375 l 1025
83.3330078125 83.25 m 1
 166.666992188 83.25 l 1
 166.666992188 166.583984375 l 1
 83.3330078125 166.583984375 l 1
 83.3330078125 83.25 l 1025
333.333984375 83.25 m 1
 416.666992188 83.25 l 1
 416.666992188 166.583984375 l 1
 333.333984375 166.583984375 l 1
 333.333984375 83.25 l 1025
0 -0.0830078125 m 1
 83.3330078125 -0.0830078125 l 1
 83.3330078125 83.25 l 1
 0 83.25 l 1
 0 -0.0830078125 l 1025
416.666992188 -0.0830078125 m 1
 416.666992188 83.25 l 1
 500 83.25 l 1
 500 -0.0830078125 l 1
 416.666992188 -0.0830078125 l 1
EndSplineSet
EndChar

StartChar: Y
Encoding: 89 89 58
Width: 583
VWidth: 916
Flags: HW
LayerCount: 2
Back
Fore
SplineSet
0 583.25 m 1
 166.666992188 583.25 l 1
 166.666992188 666.583007812 l 1
 0 666.583007812 l 1
 0 583.25 l 1025
416.666992188 583.25 m 1
 583.333007812 583.25 l 1
 583.333007812 666.583007812 l 1
 416.666992188 666.583007812 l 1
 416.666992188 583.25 l 1025
83.3330078125 499.916015625 m 1
 166.666992188 499.916015625 l 1
 166.666992188 583.25 l 1
 83.3330078125 583.25 l 1
 83.3330078125 499.916015625 l 1025
416.666992188 499.916015625 m 1
 500 499.916015625 l 1
 500 583.25 l 1
 416.666992188 583.25 l 1
 416.666992188 499.916015625 l 1025
166.666992188 416.583007812 m 1
 250 416.583007812 l 1
 250 499.916015625 l 1
 166.666992188 499.916015625 l 1
 166.666992188 416.583007812 l 1025
333.333984375 416.583007812 m 1
 416.666992188 416.583007812 l 1
 416.666992188 499.916015625 l 1
 333.333984375 499.916015625 l 1
 333.333984375 416.583007812 l 1025
166.666992188 333.25 m 1
 250 333.25 l 1
 250 416.583007812 l 1
 166.666992188 416.583007812 l 1
 166.666992188 333.25 l 1025
333.333984375 333.25 m 1
 416.666992188 333.25 l 1
 416.666992188 416.583007812 l 1
 333.333984375 416.583007812 l 1
 333.333984375 333.25 l 1025
250 249.916992188 m 1
 333.333984375 249.916992188 l 1
 333.333984375 333.25 l 1
 250 333.25 l 1
 250 249.916992188 l 1025
250 166.583984375 m 1
 333.333984375 166.583984375 l 1
 333.333984375 249.916992188 l 1
 250 249.916992188 l 1
 250 166.583984375 l 1025
250 83.25 m 1
 333.333984375 83.25 l 1
 333.333984375 166.583984375 l 1
 250 166.583984375 l 1
 250 83.25 l 1025
250 -0.0830078125 m 1
 250 83.25 l 1
 333.333984375 83.25 l 1
 333.333984375 -0.0830078125 l 1
 250 -0.0830078125 l 1
EndSplineSet
EndChar

StartChar: Z
Encoding: 90 90 59
Width: 583
VWidth: 916
Flags: HW
LayerCount: 2
Back
Fore
SplineSet
0 583.25 m 1
 500 583.25 l 1
 500 666.583007812 l 1
 0 666.583007812 l 1
 0 583.25 l 1025
333.333984375 499.916015625 m 1
 416.666992188 499.916015625 l 1
 416.666992188 583.25 l 1
 333.333984375 583.25 l 1
 333.333984375 499.916015625 l 1025
250 416.583007812 m 1
 416.666992188 416.583007812 l 1
 416.666992188 499.916015625 l 1
 250 499.916015625 l 1
 250 416.583007812 l 1025
250 333.25 m 1
 333.333984375 333.25 l 1
 333.333984375 416.583007812 l 1
 250 416.583007812 l 1
 250 333.25 l 1025
166.666992188 249.916992188 m 1
 250 249.916992188 l 1
 250 333.25 l 1
 166.666992188 333.25 l 1
 166.666992188 249.916992188 l 1025
83.3330078125 166.583984375 m 1
 166.666992188 166.583984375 l 1
 166.666992188 249.916992188 l 1
 83.3330078125 249.916992188 l 1
 83.3330078125 166.583984375 l 1025
0 83.25 m 1
 166.666992188 83.25 l 1
 166.666992188 166.583984375 l 1
 0 166.583984375 l 1
 0 83.25 l 1025
0 -0.0830078125 m 1
 0 83.25 l 1
 500 83.25 l 1
 500 -0.0830078125 l 1
 0 -0.0830078125 l 1
EndSplineSet
EndChar

StartChar: bracketleft
Encoding: 91 91 60
Width: 583
VWidth: 916
Flags: HW
LayerCount: 2
Back
Fore
SplineSet
250 583.25 m 1
 500 583.25 l 1
 500 666.583007812 l 1
 250 666.583007812 l 1
 250 583.25 l 1025
250 499.916015625 m 1
 333.333984375 499.916015625 l 1
 333.333984375 583.25 l 1
 250 583.25 l 1
 250 499.916015625 l 1025
250 416.583007812 m 1
 333.333984375 416.583007812 l 1
 333.333984375 499.916015625 l 1
 250 499.916015625 l 1
 250 416.583007812 l 1025
250 333.25 m 1
 333.333984375 333.25 l 1
 333.333984375 416.583007812 l 1
 250 416.583007812 l 1
 250 333.25 l 1025
250 249.916992188 m 1
 333.333984375 249.916992188 l 1
 333.333984375 333.25 l 1
 250 333.25 l 1
 250 249.916992188 l 1025
250 166.583984375 m 1
 333.333984375 166.583984375 l 1
 333.333984375 249.916992188 l 1
 250 249.916992188 l 1
 250 166.583984375 l 1025
250 83.25 m 1
 333.333984375 83.25 l 1
 333.333984375 166.583984375 l 1
 250 166.583984375 l 1
 250 83.25 l 1025
250 -0.0830078125 m 1
 333.333984375 -0.0830078125 l 1
 333.333984375 83.25 l 1
 250 83.25 l 1
 250 -0.0830078125 l 1025
250 -83.4169921875 m 1
 333.333984375 -83.4169921875 l 1
 333.333984375 -0.0830078125 l 1
 250 -0.0830078125 l 1
 250 -83.4169921875 l 1025
250 -166.75 m 1
 250 -83.4169921875 l 1
 500 -83.4169921875 l 1
 500 -166.75 l 1
 250 -166.75 l 1
EndSplineSet
EndChar

StartChar: backslash
Encoding: 92 92 61
Width: 583
VWidth: 916
Flags: HW
LayerCount: 2
Back
Fore
SplineSet
0 583.25 m 1
 83.3330078125 583.25 l 1
 83.3330078125 666.583007812 l 1
 0 666.583007812 l 1
 0 583.25 l 1025
83.3330078125 499.916015625 m 1
 166.666992188 499.916015625 l 1
 166.666992188 583.25 l 1
 83.3330078125 583.25 l 1
 83.3330078125 499.916015625 l 1025
83.3330078125 416.583007812 m 1
 166.666992188 416.583007812 l 1
 166.666992188 499.916015625 l 1
 83.3330078125 499.916015625 l 1
 83.3330078125 416.583007812 l 1025
166.666992188 333.25 m 1
 250 333.25 l 1
 250 416.583007812 l 1
 166.666992188 416.583007812 l 1
 166.666992188 333.25 l 1025
166.666992188 249.916992188 m 1
 250 249.916992188 l 1
 250 333.25 l 1
 166.666992188 333.25 l 1
 166.666992188 249.916992188 l 1025
250 166.583984375 m 1
 333.333984375 166.583984375 l 1
 333.333984375 249.916992188 l 1
 250 249.916992188 l 1
 250 166.583984375 l 1025
250 83.25 m 1
 333.333984375 83.25 l 1
 333.333984375 166.583984375 l 1
 250 166.583984375 l 1
 250 83.25 l 1025
333.333984375 -0.0830078125 m 1
 416.666992188 -0.0830078125 l 1
 416.666992188 83.25 l 1
 333.333984375 83.25 l 1
 333.333984375 -0.0830078125 l 1025
333.333984375 -83.4169921875 m 1
 416.666992188 -83.4169921875 l 1
 416.666992188 -0.0830078125 l 1
 333.333984375 -0.0830078125 l 1
 333.333984375 -83.4169921875 l 1025
416.666992188 -166.75 m 1
 416.666992188 -83.4169921875 l 1
 500 -83.4169921875 l 1
 500 -166.75 l 1
 416.666992188 -166.75 l 1
EndSplineSet
EndChar

StartChar: bracketright
Encoding: 93 93 62
Width: 583
VWidth: 916
Flags: HW
LayerCount: 2
Back
Fore
SplineSet
83.3330078125 583.25 m 1
 333.333984375 583.25 l 1
 333.333984375 666.583007812 l 1
 83.3330078125 666.583007812 l 1
 83.3330078125 583.25 l 1025
250 499.916015625 m 1
 333.333984375 499.916015625 l 1
 333.333984375 583.25 l 1
 250 583.25 l 1
 250 499.916015625 l 1025
250 416.583007812 m 1
 333.333984375 416.583007812 l 1
 333.333984375 499.916015625 l 1
 250 499.916015625 l 1
 250 416.583007812 l 1025
250 333.25 m 1
 333.333984375 333.25 l 1
 333.333984375 416.583007812 l 1
 250 416.583007812 l 1
 250 333.25 l 1025
250 249.916992188 m 1
 333.333984375 249.916992188 l 1
 333.333984375 333.25 l 1
 250 333.25 l 1
 250 249.916992188 l 1025
250 166.583984375 m 1
 333.333984375 166.583984375 l 1
 333.333984375 249.916992188 l 1
 250 249.916992188 l 1
 250 166.583984375 l 1025
250 83.25 m 1
 333.333984375 83.25 l 1
 333.333984375 166.583984375 l 1
 250 166.583984375 l 1
 250 83.25 l 1025
250 -0.0830078125 m 1
 333.333984375 -0.0830078125 l 1
 333.333984375 83.25 l 1
 250 83.25 l 1
 250 -0.0830078125 l 1025
250 -83.4169921875 m 1
 333.333984375 -83.4169921875 l 1
 333.333984375 -0.0830078125 l 1
 250 -0.0830078125 l 1
 250 -83.4169921875 l 1025
83.3330078125 -166.75 m 1
 83.3330078125 -83.4169921875 l 1
 333.333984375 -83.4169921875 l 1
 333.333984375 -166.75 l 1
 83.3330078125 -166.75 l 1
EndSplineSet
EndChar

StartChar: asciicircum
Encoding: 94 94 63
Width: 583
VWidth: 916
Flags: HW
LayerCount: 2
Back
Fore
SplineSet
250 583.25 m 1
 333.333984375 583.25 l 1
 333.333984375 666.583007812 l 1
 250 666.583007812 l 1
 250 583.25 l 1025
166.666992188 499.916015625 m 1
 333.333984375 499.916015625 l 1
 333.333984375 583.25 l 1
 166.666992188 583.25 l 1
 166.666992188 499.916015625 l 1025
166.666992188 416.583007812 m 1
 333.333984375 416.583007812 l 1
 333.333984375 499.916015625 l 1
 166.666992188 499.916015625 l 1
 166.666992188 416.583007812 l 1025
83.3330078125 333.25 m 1
 416.666992188 333.25 l 1
 416.666992188 416.583007812 l 1
 83.3330078125 416.583007812 l 1
 83.3330078125 333.25 l 1025
83.3330078125 249.916992188 m 1
 166.666992188 249.916992188 l 1
 166.666992188 333.25 l 1
 83.3330078125 333.25 l 1
 83.3330078125 249.916992188 l 1025
333.333984375 249.916992188 m 1
 416.666992188 249.916992188 l 1
 416.666992188 333.25 l 1
 333.333984375 333.25 l 1
 333.333984375 249.916992188 l 1025
83.3330078125 166.583984375 m 1
 166.666992188 166.583984375 l 1
 166.666992188 249.916992188 l 1
 83.3330078125 249.916992188 l 1
 83.3330078125 166.583984375 l 1025
333.333984375 166.583984375 m 1
 416.666992188 166.583984375 l 1
 416.666992188 249.916992188 l 1
 333.333984375 249.916992188 l 1
 333.333984375 166.583984375 l 1025
0 83.25 m 1
 83.3330078125 83.25 l 1
 83.3330078125 166.583984375 l 1
 0 166.583984375 l 1
 0 83.25 l 1025
416.666992188 83.25 m 1
 416.666992188 166.583984375 l 1
 500 166.583984375 l 1
 500 83.25 l 1
 416.666992188 83.25 l 1
EndSplineSet
EndChar

StartChar: underscore
Encoding: 95 95 64
Width: 583
VWidth: 916
Flags: HW
LayerCount: 2
Back
Fore
SplineSet
0 -83.4169921875 m 1
 0 -0.0830078125 l 1
 583.333007812 -0.0830078125 l 1
 583.333007812 -83.4169921875 l 1
 0 -83.4169921875 l 1
EndSplineSet
EndChar

StartChar: grave
Encoding: 96 96 65
Width: 583
VWidth: 916
Flags: HW
LayerCount: 2
Back
Fore
SplineSet
166.666992188 583.25 m 1
 166.666992188 666.583007812 l 1
 333.333984375 666.583007812 l 1
 333.333984375 583.25 l 1
 166.666992188 583.25 l 1
EndSplineSet
EndChar

StartChar: a
Encoding: 97 97 66
Width: 583
VWidth: 916
Flags: HW
LayerCount: 2
Back
Fore
SplineSet
166.666992188 416.583007812 m 1
 500 416.583007812 l 1
 500 499.916015625 l 1
 166.666992188 499.916015625 l 1
 166.666992188 416.583007812 l 1025
166.666992188 333.25 m 1
 250 333.25 l 1
 250 416.583007812 l 1
 166.666992188 416.583007812 l 1
 166.666992188 333.25 l 1025
416.666992188 333.25 m 1
 500 333.25 l 1
 500 416.583007812 l 1
 416.666992188 416.583007812 l 1
 416.666992188 333.25 l 1025
166.666992188 249.916992188 m 1
 500 249.916992188 l 1
 500 333.25 l 1
 166.666992188 333.25 l 1
 166.666992188 249.916992188 l 1025
83.3330078125 166.583984375 m 1
 166.666992188 166.583984375 l 1
 166.666992188 249.916992188 l 1
 83.3330078125 249.916992188 l 1
 83.3330078125 166.583984375 l 1025
416.666992188 166.583984375 m 1
 500 166.583984375 l 1
 500 249.916992188 l 1
 416.666992188 249.916992188 l 1
 416.666992188 166.583984375 l 1025
83.3330078125 83.25 m 1
 166.666992188 83.25 l 1
 166.666992188 166.583984375 l 1
 83.3330078125 166.583984375 l 1
 83.3330078125 83.25 l 1025
416.666992188 83.25 m 1
 500 83.25 l 1
 500 166.583984375 l 1
 416.666992188 166.583984375 l 1
 416.666992188 83.25 l 1025
166.666992188 -0.0830078125 m 1
 166.666992188 83.25 l 1
 583.333007812 83.25 l 1
 583.333007812 -0.0830078125 l 1
 166.666992188 -0.0830078125 l 1
EndSplineSet
EndChar

StartChar: b
Encoding: 98 98 67
Width: 583
VWidth: 916
Flags: HW
LayerCount: 2
Back
Fore
SplineSet
83.3330078125 583.25 m 1
 166.666992188 583.25 l 1
 166.666992188 666.583007812 l 1
 83.3330078125 666.583007812 l 1
 83.3330078125 583.25 l 1025
83.3330078125 499.916015625 m 1
 166.666992188 499.916015625 l 1
 166.666992188 583.25 l 1
 83.3330078125 583.25 l 1
 83.3330078125 499.916015625 l 1025
83.3330078125 416.583007812 m 1
 166.666992188 416.583007812 l 1
 166.666992188 499.916015625 l 1
 83.3330078125 499.916015625 l 1
 83.3330078125 416.583007812 l 1025
250 416.583007812 m 1
 416.666992188 416.583007812 l 1
 416.666992188 499.916015625 l 1
 250 499.916015625 l 1
 250 416.583007812 l 1025
83.3330078125 333.25 m 1
 250 333.25 l 1
 250 416.583007812 l 1
 83.3330078125 416.583007812 l 1
 83.3330078125 333.25 l 1025
416.666992188 333.25 m 1
 500 333.25 l 1
 500 416.583007812 l 1
 416.666992188 416.583007812 l 1
 416.666992188 333.25 l 1025
83.3330078125 249.916992188 m 1
 166.666992188 249.916992188 l 1
 166.666992188 333.25 l 1
 83.3330078125 333.25 l 1
 83.3330078125 249.916992188 l 1025
416.666992188 249.916992188 m 1
 500 249.916992188 l 1
 500 333.25 l 1
 416.666992188 333.25 l 1
 416.666992188 249.916992188 l 1025
83.3330078125 166.583984375 m 1
 166.666992188 166.583984375 l 1
 166.666992188 249.916992188 l 1
 83.3330078125 249.916992188 l 1
 83.3330078125 166.583984375 l 1025
416.666992188 166.583984375 m 1
 500 166.583984375 l 1
 500 249.916992188 l 1
 416.666992188 249.916992188 l 1
 416.666992188 166.583984375 l 1025
83.3330078125 83.25 m 1
 166.666992188 83.25 l 1
 166.666992188 166.583984375 l 1
 83.3330078125 166.583984375 l 1
 83.3330078125 83.25 l 1025
333.333984375 83.25 m 1
 500 83.25 l 1
 500 166.583984375 l 1
 333.333984375 166.583984375 l 1
 333.333984375 83.25 l 1025
83.3330078125 -0.0830078125 m 1
 83.3330078125 83.25 l 1
 416.666992188 83.25 l 1
 416.666992188 -0.0830078125 l 1
 83.3330078125 -0.0830078125 l 1
EndSplineSet
EndChar

StartChar: c
Encoding: 99 99 68
Width: 583
VWidth: 916
Flags: HW
LayerCount: 2
Back
Fore
SplineSet
166.666992188 416.583007812 m 1
 500 416.583007812 l 1
 500 499.916015625 l 1
 166.666992188 499.916015625 l 1
 166.666992188 416.583007812 l 1025
83.3330078125 333.25 m 1
 250 333.25 l 1
 250 416.583007812 l 1
 83.3330078125 416.583007812 l 1
 83.3330078125 333.25 l 1025
83.3330078125 249.916992188 m 1
 166.666992188 249.916992188 l 1
 166.666992188 333.25 l 1
 83.3330078125 333.25 l 1
 83.3330078125 249.916992188 l 1025
83.3330078125 166.583984375 m 1
 166.666992188 166.583984375 l 1
 166.666992188 249.916992188 l 1
 83.3330078125 249.916992188 l 1
 83.3330078125 166.583984375 l 1025
83.3330078125 83.25 m 1
 250 83.25 l 1
 250 166.583984375 l 1
 83.3330078125 166.583984375 l 1
 83.3330078125 83.25 l 1025
166.666992188 -0.0830078125 m 1
 166.666992188 83.25 l 1
 500 83.25 l 1
 500 -0.0830078125 l 1
 166.666992188 -0.0830078125 l 1
EndSplineSet
EndChar

StartChar: d
Encoding: 100 100 69
Width: 583
VWidth: 916
Flags: HW
LayerCount: 2
Back
Fore
SplineSet
416.666992188 583.25 m 1
 500 583.25 l 1
 500 666.583007812 l 1
 416.666992188 666.583007812 l 1
 416.666992188 583.25 l 1025
416.666992188 499.916015625 m 1
 500 499.916015625 l 1
 500 583.25 l 1
 416.666992188 583.25 l 1
 416.666992188 499.916015625 l 1025
166.666992188 416.583007812 m 1
 500 416.583007812 l 1
 500 499.916015625 l 1
 166.666992188 499.916015625 l 1
 166.666992188 416.583007812 l 1025
83.3330078125 333.25 m 1
 250 333.25 l 1
 250 416.583007812 l 1
 83.3330078125 416.583007812 l 1
 83.3330078125 333.25 l 1025
416.666992188 333.25 m 1
 500 333.25 l 1
 500 416.583007812 l 1
 416.666992188 416.583007812 l 1
 416.666992188 333.25 l 1025
83.3330078125 249.916992188 m 1
 166.666992188 249.916992188 l 1
 166.666992188 333.25 l 1
 83.3330078125 333.25 l 1
 83.3330078125 249.916992188 l 1025
416.666992188 249.916992188 m 1
 500 249.916992188 l 1
 500 333.25 l 1
 416.666992188 333.25 l 1
 416.666992188 249.916992188 l 1025
83.3330078125 166.583984375 m 1
 166.666992188 166.583984375 l 1
 166.666992188 249.916992188 l 1
 83.3330078125 249.916992188 l 1
 83.3330078125 166.583984375 l 1025
416.666992188 166.583984375 m 1
 500 166.583984375 l 1
 500 249.916992188 l 1
 416.666992188 249.916992188 l 1
 416.666992188 166.583984375 l 1025
83.3330078125 83.25 m 1
 166.666992188 83.25 l 1
 166.666992188 166.583984375 l 1
 83.3330078125 166.583984375 l 1
 83.3330078125 83.25 l 1025
333.333984375 83.25 m 1
 500 83.25 l 1
 500 166.583984375 l 1
 333.333984375 166.583984375 l 1
 333.333984375 83.25 l 1025
166.666992188 -0.0830078125 m 1
 333.333984375 -0.0830078125 l 1
 333.333984375 83.25 l 1
 166.666992188 83.25 l 1
 166.666992188 -0.0830078125 l 1025
416.666992188 -0.0830078125 m 1
 416.666992188 83.25 l 1
 500 83.25 l 1
 500 -0.0830078125 l 1
 416.666992188 -0.0830078125 l 1
EndSplineSet
EndChar

StartChar: e
Encoding: 101 101 70
Width: 583
VWidth: 916
Flags: HW
LayerCount: 2
Back
Fore
SplineSet
166.666992188 416.583007812 m 1
 416.666992188 416.583007812 l 1
 416.666992188 499.916015625 l 1
 166.666992188 499.916015625 l 1
 166.666992188 416.583007812 l 1025
83.3330078125 333.25 m 1
 166.666992188 333.25 l 1
 166.666992188 416.583007812 l 1
 83.3330078125 416.583007812 l 1
 83.3330078125 333.25 l 1025
416.666992188 333.25 m 1
 500 333.25 l 1
 500 416.583007812 l 1
 416.666992188 416.583007812 l 1
 416.666992188 333.25 l 1025
83.3330078125 249.916992188 m 1
 500 249.916992188 l 1
 500 333.25 l 1
 83.3330078125 333.25 l 1
 83.3330078125 249.916992188 l 1025
83.3330078125 166.583984375 m 1
 166.666992188 166.583984375 l 1
 166.666992188 249.916992188 l 1
 83.3330078125 249.916992188 l 1
 83.3330078125 166.583984375 l 1025
83.3330078125 83.25 m 1
 166.666992188 83.25 l 1
 166.666992188 166.583984375 l 1
 83.3330078125 166.583984375 l 1
 83.3330078125 83.25 l 1025
166.666992188 -0.0830078125 m 1
 166.666992188 83.25 l 1
 500 83.25 l 1
 500 -0.0830078125 l 1
 166.666992188 -0.0830078125 l 1
EndSplineSet
EndChar

StartChar: f
Encoding: 102 102 71
Width: 583
VWidth: 916
Flags: HW
LayerCount: 2
Back
Fore
SplineSet
250 666.583007812 m 1
 583.333007812 666.583007812 l 1
 583.333007812 749.916992188 l 1
 250 749.916992188 l 1
 250 666.583007812 l 1025
250 583.25 m 1
 333.333984375 583.25 l 1
 333.333984375 666.583007812 l 1
 250 666.583007812 l 1
 250 583.25 l 1025
250 499.916015625 m 1
 333.333984375 499.916015625 l 1
 333.333984375 583.25 l 1
 250 583.25 l 1
 250 499.916015625 l 1025
83.3330078125 416.583007812 m 1
 583.333007812 416.583007812 l 1
 583.333007812 499.916015625 l 1
 83.3330078125 499.916015625 l 1
 83.3330078125 416.583007812 l 1025
250 333.25 m 1
 333.333984375 333.25 l 1
 333.333984375 416.583007812 l 1
 250 416.583007812 l 1
 250 333.25 l 1025
250 249.916992188 m 1
 333.333984375 249.916992188 l 1
 333.333984375 333.25 l 1
 250 333.25 l 1
 250 249.916992188 l 1025
250 166.583984375 m 1
 333.333984375 166.583984375 l 1
 333.333984375 249.916992188 l 1
 250 249.916992188 l 1
 250 166.583984375 l 1025
250 83.25 m 1
 333.333984375 83.25 l 1
 333.333984375 166.583984375 l 1
 250 166.583984375 l 1
 250 83.25 l 1025
250 -0.0830078125 m 1
 250 83.25 l 1
 333.333984375 83.25 l 1
 333.333984375 -0.0830078125 l 1
 250 -0.0830078125 l 1
EndSplineSet
EndChar

StartChar: g
Encoding: 103 103 72
Width: 583
VWidth: 916
Flags: HW
LayerCount: 2
Back
Fore
SplineSet
166.666992188 416.583007812 m 1
 500 416.583007812 l 1
 500 499.916015625 l 1
 166.666992188 499.916015625 l 1
 166.666992188 416.583007812 l 1025
83.3330078125 333.25 m 1
 250 333.25 l 1
 250 416.583007812 l 1
 83.3330078125 416.583007812 l 1
 83.3330078125 333.25 l 1025
416.666992188 333.25 m 1
 500 333.25 l 1
 500 416.583007812 l 1
 416.666992188 416.583007812 l 1
 416.666992188 333.25 l 1025
83.3330078125 249.916992188 m 1
 166.666992188 249.916992188 l 1
 166.666992188 333.25 l 1
 83.3330078125 333.25 l 1
 83.3330078125 249.916992188 l 1025
416.666992188 249.916992188 m 1
 500 249.916992188 l 1
 500 333.25 l 1
 416.666992188 333.25 l 1
 416.666992188 249.916992188 l 1025
83.3330078125 166.583984375 m 1
 166.666992188 166.583984375 l 1
 166.666992188 249.916992188 l 1
 83.3330078125 249.916992188 l 1
 83.3330078125 166.583984375 l 1025
416.666992188 166.583984375 m 1
 500 166.583984375 l 1
 500 249.916992188 l 1
 416.666992188 249.916992188 l 1
 416.666992188 166.583984375 l 1025
83.3330078125 83.25 m 1
 166.666992188 83.25 l 1
 166.666992188 166.583984375 l 1
 83.3330078125 166.583984375 l 1
 83.3330078125 83.25 l 1025
333.333984375 83.25 m 1
 500 83.25 l 1
 500 166.583984375 l 1
 333.333984375 166.583984375 l 1
 333.333984375 83.25 l 1025
166.666992188 -0.0830078125 m 1
 333.333984375 -0.0830078125 l 1
 333.333984375 83.25 l 1
 166.666992188 83.25 l 1
 166.666992188 -0.0830078125 l 1025
416.666992188 -0.0830078125 m 1
 500 -0.0830078125 l 1
 500 83.25 l 1
 416.666992188 83.25 l 1
 416.666992188 -0.0830078125 l 1025
416.666992188 -83.4169921875 m 1
 500 -83.4169921875 l 1
 500 -0.0830078125 l 1
 416.666992188 -0.0830078125 l 1
 416.666992188 -83.4169921875 l 1025
83.3330078125 -166.75 m 1
 83.3330078125 -83.4169921875 l 1
 416.666992188 -83.4169921875 l 1
 416.666992188 -166.75 l 1
 83.3330078125 -166.75 l 1
EndSplineSet
EndChar

StartChar: h
Encoding: 104 104 73
Width: 583
VWidth: 916
Flags: HW
LayerCount: 2
Back
Fore
SplineSet
83.3330078125 583.25 m 1
 166.666992188 583.25 l 1
 166.666992188 666.583007812 l 1
 83.3330078125 666.583007812 l 1
 83.3330078125 583.25 l 1025
83.3330078125 499.916015625 m 1
 166.666992188 499.916015625 l 1
 166.666992188 583.25 l 1
 83.3330078125 583.25 l 1
 83.3330078125 499.916015625 l 1025
83.3330078125 416.583007812 m 1
 166.666992188 416.583007812 l 1
 166.666992188 499.916015625 l 1
 83.3330078125 499.916015625 l 1
 83.3330078125 416.583007812 l 1025
250 416.583007812 m 1
 416.666992188 416.583007812 l 1
 416.666992188 499.916015625 l 1
 250 499.916015625 l 1
 250 416.583007812 l 1025
83.3330078125 333.25 m 1
 250 333.25 l 1
 250 416.583007812 l 1
 83.3330078125 416.583007812 l 1
 83.3330078125 333.25 l 1025
416.666992188 333.25 m 1
 500 333.25 l 1
 500 416.583007812 l 1
 416.666992188 416.583007812 l 1
 416.666992188 333.25 l 1025
83.3330078125 249.916992188 m 1
 166.666992188 249.916992188 l 1
 166.666992188 333.25 l 1
 83.3330078125 333.25 l 1
 83.3330078125 249.916992188 l 1025
416.666992188 249.916992188 m 1
 500 249.916992188 l 1
 500 333.25 l 1
 416.666992188 333.25 l 1
 416.666992188 249.916992188 l 1025
83.3330078125 166.583984375 m 1
 166.666992188 166.583984375 l 1
 166.666992188 249.916992188 l 1
 83.3330078125 249.916992188 l 1
 83.3330078125 166.583984375 l 1025
416.666992188 166.583984375 m 1
 500 166.583984375 l 1
 500 249.916992188 l 1
 416.666992188 249.916992188 l 1
 416.666992188 166.583984375 l 1025
83.3330078125 83.25 m 1
 166.666992188 83.25 l 1
 166.666992188 166.583984375 l 1
 83.3330078125 166.583984375 l 1
 83.3330078125 83.25 l 1025
416.666992188 83.25 m 1
 500 83.25 l 1
 500 166.583984375 l 1
 416.666992188 166.583984375 l 1
 416.666992188 83.25 l 1025
83.3330078125 -0.0830078125 m 1
 166.666992188 -0.0830078125 l 1
 166.666992188 83.25 l 1
 83.3330078125 83.25 l 1
 83.3330078125 -0.0830078125 l 1025
416.666992188 -0.0830078125 m 1
 416.666992188 83.25 l 1
 500 83.25 l 1
 500 -0.0830078125 l 1
 416.666992188 -0.0830078125 l 1
EndSplineSet
EndChar

StartChar: i
Encoding: 105 105 74
Width: 583
VWidth: 916
Flags: HW
LayerCount: 2
Back
Fore
SplineSet
250 583.25 m 1
 333.333984375 583.25 l 1
 333.333984375 666.583007812 l 1
 250 666.583007812 l 1
 250 583.25 l 1025
83.3330078125 416.583007812 m 1
 333.333984375 416.583007812 l 1
 333.333984375 499.916015625 l 1
 83.3330078125 499.916015625 l 1
 83.3330078125 416.583007812 l 1025
250 333.25 m 1
 333.333984375 333.25 l 1
 333.333984375 416.583007812 l 1
 250 416.583007812 l 1
 250 333.25 l 1025
250 249.916992188 m 1
 333.333984375 249.916992188 l 1
 333.333984375 333.25 l 1
 250 333.25 l 1
 250 249.916992188 l 1025
250 166.583984375 m 1
 333.333984375 166.583984375 l 1
 333.333984375 249.916992188 l 1
 250 249.916992188 l 1
 250 166.583984375 l 1025
250 83.25 m 1
 333.333984375 83.25 l 1
 333.333984375 166.583984375 l 1
 250 166.583984375 l 1
 250 83.25 l 1025
250 -0.0830078125 m 1
 250 83.25 l 1
 333.333984375 83.25 l 1
 333.333984375 -0.0830078125 l 1
 250 -0.0830078125 l 1
EndSplineSet
EndChar

StartChar: j
Encoding: 106 106 75
Width: 583
VWidth: 916
Flags: HW
LayerCount: 2
Back
Fore
SplineSet
333.333984375 583.25 m 1
 416.666992188 583.25 l 1
 416.666992188 666.583007812 l 1
 333.333984375 666.583007812 l 1
 333.333984375 583.25 l 1025
83.3330078125 416.583007812 m 1
 416.666992188 416.583007812 l 1
 416.666992188 499.916015625 l 1
 83.3330078125 499.916015625 l 1
 83.3330078125 416.583007812 l 1025
333.333984375 333.25 m 1
 416.666992188 333.25 l 1
 416.666992188 416.583007812 l 1
 333.333984375 416.583007812 l 1
 333.333984375 333.25 l 1025
333.333984375 249.916992188 m 1
 416.666992188 249.916992188 l 1
 416.666992188 333.25 l 1
 333.333984375 333.25 l 1
 333.333984375 249.916992188 l 1025
333.333984375 166.583984375 m 1
 416.666992188 166.583984375 l 1
 416.666992188 249.916992188 l 1
 333.333984375 249.916992188 l 1
 333.333984375 166.583984375 l 1025
333.333984375 83.25 m 1
 416.666992188 83.25 l 1
 416.666992188 166.583984375 l 1
 333.333984375 166.583984375 l 1
 333.333984375 83.25 l 1025
333.333984375 -0.0830078125 m 1
 416.666992188 -0.0830078125 l 1
 416.666992188 83.25 l 1
 333.333984375 83.25 l 1
 333.333984375 -0.0830078125 l 1025
333.333984375 -83.4169921875 m 1
 416.666992188 -83.4169921875 l 1
 416.666992188 -0.0830078125 l 1
 333.333984375 -0.0830078125 l 1
 333.333984375 -83.4169921875 l 1025
83.3330078125 -166.75 m 1
 83.3330078125 -83.4169921875 l 1
 333.333984375 -83.4169921875 l 1
 333.333984375 -166.75 l 1
 83.3330078125 -166.75 l 1
EndSplineSet
EndChar

StartChar: k
Encoding: 107 107 76
Width: 583
VWidth: 916
Flags: HW
LayerCount: 2
Back
Fore
SplineSet
83.3330078125 583.25 m 1
 166.666992188 583.25 l 1
 166.666992188 666.583007812 l 1
 83.3330078125 666.583007812 l 1
 83.3330078125 583.25 l 1025
83.3330078125 499.916015625 m 1
 166.666992188 499.916015625 l 1
 166.666992188 583.25 l 1
 83.3330078125 583.25 l 1
 83.3330078125 499.916015625 l 1025
83.3330078125 416.583007812 m 1
 166.666992188 416.583007812 l 1
 166.666992188 499.916015625 l 1
 83.3330078125 499.916015625 l 1
 83.3330078125 416.583007812 l 1025
333.333984375 416.583007812 m 1
 500 416.583007812 l 1
 500 499.916015625 l 1
 333.333984375 499.916015625 l 1
 333.333984375 416.583007812 l 1025
83.3330078125 333.25 m 1
 166.666992188 333.25 l 1
 166.666992188 416.583007812 l 1
 83.3330078125 416.583007812 l 1
 83.3330078125 333.25 l 1025
250 333.25 m 1
 333.333984375 333.25 l 1
 333.333984375 416.583007812 l 1
 250 416.583007812 l 1
 250 333.25 l 1025
83.3330078125 249.916992188 m 1
 250 249.916992188 l 1
 250 333.25 l 1
 83.3330078125 333.25 l 1
 83.3330078125 249.916992188 l 1025
83.3330078125 166.583984375 m 1
 166.666992188 166.583984375 l 1
 166.666992188 249.916992188 l 1
 83.3330078125 249.916992188 l 1
 83.3330078125 166.583984375 l 1025
250 166.583984375 m 1
 333.333984375 166.583984375 l 1
 333.333984375 249.916992188 l 1
 250 249.916992188 l 1
 250 166.583984375 l 1025
83.3330078125 83.25 m 1
 166.666992188 83.25 l 1
 166.666992188 166.583984375 l 1
 83.3330078125 166.583984375 l 1
 83.3330078125 83.25 l 1025
250 83.25 m 1
 416.666992188 83.25 l 1
 416.666992188 166.583984375 l 1
 250 166.583984375 l 1
 250 83.25 l 1025
83.3330078125 -0.0830078125 m 1
 166.666992188 -0.0830078125 l 1
 166.666992188 83.25 l 1
 83.3330078125 83.25 l 1
 83.3330078125 -0.0830078125 l 1025
333.333984375 -0.0830078125 m 1
 333.333984375 83.25 l 1
 500 83.25 l 1
 500 -0.0830078125 l 1
 333.333984375 -0.0830078125 l 1
EndSplineSet
EndChar

StartChar: l
Encoding: 108 108 77
Width: 583
VWidth: 916
Flags: HW
LayerCount: 2
Back
Fore
SplineSet
83.3330078125 583.25 m 1
 333.333984375 583.25 l 1
 333.333984375 666.583007812 l 1
 83.3330078125 666.583007812 l 1
 83.3330078125 583.25 l 1025
250 499.916015625 m 1
 333.333984375 499.916015625 l 1
 333.333984375 583.25 l 1
 250 583.25 l 1
 250 499.916015625 l 1025
250 416.583007812 m 1
 333.333984375 416.583007812 l 1
 333.333984375 499.916015625 l 1
 250 499.916015625 l 1
 250 416.583007812 l 1025
250 333.25 m 1
 333.333984375 333.25 l 1
 333.333984375 416.583007812 l 1
 250 416.583007812 l 1
 250 333.25 l 1025
250 249.916992188 m 1
 333.333984375 249.916992188 l 1
 333.333984375 333.25 l 1
 250 333.25 l 1
 250 249.916992188 l 1025
250 166.583984375 m 1
 333.333984375 166.583984375 l 1
 333.333984375 249.916992188 l 1
 250 249.916992188 l 1
 250 166.583984375 l 1025
250 83.25 m 1
 333.333984375 83.25 l 1
 333.333984375 166.583984375 l 1
 250 166.583984375 l 1
 250 83.25 l 1025
250 -0.0830078125 m 1
 250 83.25 l 1
 333.333984375 83.25 l 1
 333.333984375 -0.0830078125 l 1
 250 -0.0830078125 l 1
EndSplineSet
EndChar

StartChar: m
Encoding: 109 109 78
Width: 583
VWidth: 916
Flags: HW
LayerCount: 2
Back
Fore
SplineSet
83.3330078125 416.583007812 m 1
 500 416.583007812 l 1
 500 499.916015625 l 1
 83.3330078125 499.916015625 l 1
 83.3330078125 416.583007812 l 1025
83.3330078125 333.25 m 1
 166.666992188 333.25 l 1
 166.666992188 416.583007812 l 1
 83.3330078125 416.583007812 l 1
 83.3330078125 333.25 l 1025
250 333.25 m 1
 333.333984375 333.25 l 1
 333.333984375 416.583007812 l 1
 250 416.583007812 l 1
 250 333.25 l 1025
416.666992188 333.25 m 1
 500 333.25 l 1
 500 416.583007812 l 1
 416.666992188 416.583007812 l 1
 416.666992188 333.25 l 1025
83.3330078125 249.916992188 m 1
 166.666992188 249.916992188 l 1
 166.666992188 333.25 l 1
 83.3330078125 333.25 l 1
 83.3330078125 249.916992188 l 1025
250 249.916992188 m 1
 333.333984375 249.916992188 l 1
 333.333984375 333.25 l 1
 250 333.25 l 1
 250 249.916992188 l 1025
416.666992188 249.916992188 m 1
 500 249.916992188 l 1
 500 333.25 l 1
 416.666992188 333.25 l 1
 416.666992188 249.916992188 l 1025
83.3330078125 166.583984375 m 1
 166.666992188 166.583984375 l 1
 166.666992188 249.916992188 l 1
 83.3330078125 249.916992188 l 1
 83.3330078125 166.583984375 l 1025
250 166.583984375 m 1
 333.333984375 166.583984375 l 1
 333.333984375 249.916992188 l 1
 250 249.916992188 l 1
 250 166.583984375 l 1025
416.666992188 166.583984375 m 1
 500 166.583984375 l 1
 500 249.916992188 l 1
 416.666992188 249.916992188 l 1
 416.666992188 166.583984375 l 1025
83.3330078125 83.25 m 1
 166.666992188 83.25 l 1
 166.666992188 166.583984375 l 1
 83.3330078125 166.583984375 l 1
 83.3330078125 83.25 l 1025
250 83.25 m 1
 333.333984375 83.25 l 1
 333.333984375 166.583984375 l 1
 250 166.583984375 l 1
 250 83.25 l 1025
416.666992188 83.25 m 1
 500 83.25 l 1
 500 166.583984375 l 1
 416.666992188 166.583984375 l 1
 416.666992188 83.25 l 1025
83.3330078125 -0.0830078125 m 1
 166.666992188 -0.0830078125 l 1
 166.666992188 83.25 l 1
 83.3330078125 83.25 l 1
 83.3330078125 -0.0830078125 l 1025
250 -0.0830078125 m 1
 333.333984375 -0.0830078125 l 1
 333.333984375 83.25 l 1
 250 83.25 l 1
 250 -0.0830078125 l 1025
416.666992188 -0.0830078125 m 1
 416.666992188 83.25 l 1
 500 83.25 l 1
 500 -0.0830078125 l 1
 416.666992188 -0.0830078125 l 1
EndSplineSet
EndChar

StartChar: n
Encoding: 110 110 79
Width: 583
VWidth: 916
Flags: HW
LayerCount: 2
Back
Fore
SplineSet
83.3330078125 416.583007812 m 1
 166.666992188 416.583007812 l 1
 166.666992188 499.916015625 l 1
 83.3330078125 499.916015625 l 1
 83.3330078125 416.583007812 l 1025
250 416.583007812 m 1
 416.666992188 416.583007812 l 1
 416.666992188 499.916015625 l 1
 250 499.916015625 l 1
 250 416.583007812 l 1025
83.3330078125 333.25 m 1
 250 333.25 l 1
 250 416.583007812 l 1
 83.3330078125 416.583007812 l 1
 83.3330078125 333.25 l 1025
416.666992188 333.25 m 1
 500 333.25 l 1
 500 416.583007812 l 1
 416.666992188 416.583007812 l 1
 416.666992188 333.25 l 1025
83.3330078125 249.916992188 m 1
 166.666992188 249.916992188 l 1
 166.666992188 333.25 l 1
 83.3330078125 333.25 l 1
 83.3330078125 249.916992188 l 1025
416.666992188 249.916992188 m 1
 500 249.916992188 l 1
 500 333.25 l 1
 416.666992188 333.25 l 1
 416.666992188 249.916992188 l 1025
83.3330078125 166.583984375 m 1
 166.666992188 166.583984375 l 1
 166.666992188 249.916992188 l 1
 83.3330078125 249.916992188 l 1
 83.3330078125 166.583984375 l 1025
416.666992188 166.583984375 m 1
 500 166.583984375 l 1
 500 249.916992188 l 1
 416.666992188 249.916992188 l 1
 416.666992188 166.583984375 l 1025
83.3330078125 83.25 m 1
 166.666992188 83.25 l 1
 166.666992188 166.583984375 l 1
 83.3330078125 166.583984375 l 1
 83.3330078125 83.25 l 1025
416.666992188 83.25 m 1
 500 83.25 l 1
 500 166.583984375 l 1
 416.666992188 166.583984375 l 1
 416.666992188 83.25 l 1025
83.3330078125 -0.0830078125 m 1
 166.666992188 -0.0830078125 l 1
 166.666992188 83.25 l 1
 83.3330078125 83.25 l 1
 83.3330078125 -0.0830078125 l 1025
416.666992188 -0.0830078125 m 1
 416.666992188 83.25 l 1
 500 83.25 l 1
 500 -0.0830078125 l 1
 416.666992188 -0.0830078125 l 1
EndSplineSet
EndChar

StartChar: o
Encoding: 111 111 80
Width: 583
VWidth: 916
Flags: HW
LayerCount: 2
Back
Fore
SplineSet
83.3330078125 416.583007812 m 1
 416.666992188 416.583007812 l 1
 416.666992188 499.916015625 l 1
 83.3330078125 499.916015625 l 1
 83.3330078125 416.583007812 l 1025
0 333.25 m 1
 166.666992188 333.25 l 1
 166.666992188 416.583007812 l 1
 0 416.583007812 l 1
 0 333.25 l 1025
333.333984375 333.25 m 1
 500 333.25 l 1
 500 416.583007812 l 1
 333.333984375 416.583007812 l 1
 333.333984375 333.25 l 1025
0 249.916992188 m 1
 83.3330078125 249.916992188 l 1
 83.3330078125 333.25 l 1
 0 333.25 l 1
 0 249.916992188 l 1025
416.666992188 249.916992188 m 1
 500 249.916992188 l 1
 500 333.25 l 1
 416.666992188 333.25 l 1
 416.666992188 249.916992188 l 1025
0 166.583984375 m 1
 83.3330078125 166.583984375 l 1
 83.3330078125 249.916992188 l 1
 0 249.916992188 l 1
 0 166.583984375 l 1025
416.666992188 166.583984375 m 1
 500 166.583984375 l 1
 500 249.916992188 l 1
 416.666992188 249.916992188 l 1
 416.666992188 166.583984375 l 1025
0 83.25 m 1
 166.666992188 83.25 l 1
 166.666992188 166.583984375 l 1
 0 166.583984375 l 1
 0 83.25 l 1025
333.333984375 83.25 m 1
 500 83.25 l 1
 500 166.583984375 l 1
 333.333984375 166.583984375 l 1
 333.333984375 83.25 l 1025
83.3330078125 -0.0830078125 m 1
 83.3330078125 83.25 l 1
 416.666992188 83.25 l 1
 416.666992188 -0.0830078125 l 1
 83.3330078125 -0.0830078125 l 1
EndSplineSet
EndChar

StartChar: p
Encoding: 112 112 81
Width: 583
VWidth: 916
Flags: HW
LayerCount: 2
Back
Fore
SplineSet
83.3330078125 416.583007812 m 1
 166.666992188 416.583007812 l 1
 166.666992188 499.916015625 l 1
 83.3330078125 499.916015625 l 1
 83.3330078125 416.583007812 l 1025
250 416.583007812 m 1
 416.666992188 416.583007812 l 1
 416.666992188 499.916015625 l 1
 250 499.916015625 l 1
 250 416.583007812 l 1025
83.3330078125 333.25 m 1
 250 333.25 l 1
 250 416.583007812 l 1
 83.3330078125 416.583007812 l 1
 83.3330078125 333.25 l 1025
416.666992188 333.25 m 1
 500 333.25 l 1
 500 416.583007812 l 1
 416.666992188 416.583007812 l 1
 416.666992188 333.25 l 1025
83.3330078125 249.916992188 m 1
 166.666992188 249.916992188 l 1
 166.666992188 333.25 l 1
 83.3330078125 333.25 l 1
 83.3330078125 249.916992188 l 1025
416.666992188 249.916992188 m 1
 500 249.916992188 l 1
 500 333.25 l 1
 416.666992188 333.25 l 1
 416.666992188 249.916992188 l 1025
83.3330078125 166.583984375 m 1
 166.666992188 166.583984375 l 1
 166.666992188 249.916992188 l 1
 83.3330078125 249.916992188 l 1
 83.3330078125 166.583984375 l 1025
416.666992188 166.583984375 m 1
 500 166.583984375 l 1
 500 249.916992188 l 1
 416.666992188 249.916992188 l 1
 416.666992188 166.583984375 l 1025
83.3330078125 83.25 m 1
 166.666992188 83.25 l 1
 166.666992188 166.583984375 l 1
 83.3330078125 166.583984375 l 1
 83.3330078125 83.25 l 1025
333.333984375 83.25 m 1
 500 83.25 l 1
 500 166.583984375 l 1
 333.333984375 166.583984375 l 1
 333.333984375 83.25 l 1025
83.3330078125 -0.0830078125 m 1
 416.666992188 -0.0830078125 l 1
 416.666992188 83.25 l 1
 83.3330078125 83.25 l 1
 83.3330078125 -0.0830078125 l 1025
83.3330078125 -83.4169921875 m 1
 166.666992188 -83.4169921875 l 1
 166.666992188 -0.0830078125 l 1
 83.3330078125 -0.0830078125 l 1
 83.3330078125 -83.4169921875 l 1025
83.3330078125 -166.75 m 1
 83.3330078125 -83.4169921875 l 1
 166.666992188 -83.4169921875 l 1
 166.666992188 -166.75 l 1
 83.3330078125 -166.75 l 1
EndSplineSet
EndChar

StartChar: q
Encoding: 113 113 82
Width: 583
VWidth: 916
Flags: HW
LayerCount: 2
Back
Fore
SplineSet
166.666992188 416.583007812 m 1
 500 416.583007812 l 1
 500 499.916015625 l 1
 166.666992188 499.916015625 l 1
 166.666992188 416.583007812 l 1025
83.3330078125 333.25 m 1
 250 333.25 l 1
 250 416.583007812 l 1
 83.3330078125 416.583007812 l 1
 83.3330078125 333.25 l 1025
416.666992188 333.25 m 1
 500 333.25 l 1
 500 416.583007812 l 1
 416.666992188 416.583007812 l 1
 416.666992188 333.25 l 1025
83.3330078125 249.916992188 m 1
 166.666992188 249.916992188 l 1
 166.666992188 333.25 l 1
 83.3330078125 333.25 l 1
 83.3330078125 249.916992188 l 1025
416.666992188 249.916992188 m 1
 500 249.916992188 l 1
 500 333.25 l 1
 416.666992188 333.25 l 1
 416.666992188 249.916992188 l 1025
83.3330078125 166.583984375 m 1
 166.666992188 166.583984375 l 1
 166.666992188 249.916992188 l 1
 83.3330078125 249.916992188 l 1
 83.3330078125 166.583984375 l 1025
416.666992188 166.583984375 m 1
 500 166.583984375 l 1
 500 249.916992188 l 1
 416.666992188 249.916992188 l 1
 416.666992188 166.583984375 l 1025
83.3330078125 83.25 m 1
 166.666992188 83.25 l 1
 166.666992188 166.583984375 l 1
 83.3330078125 166.583984375 l 1
 83.3330078125 83.25 l 1025
333.333984375 83.25 m 1
 500 83.25 l 1
 500 166.583984375 l 1
 333.333984375 166.583984375 l 1
 333.333984375 83.25 l 1025
166.666992188 -0.0830078125 m 1
 333.333984375 -0.0830078125 l 1
 333.333984375 83.25 l 1
 166.666992188 83.25 l 1
 166.666992188 -0.0830078125 l 1025
416.666992188 -0.0830078125 m 1
 500 -0.0830078125 l 1
 500 83.25 l 1
 416.666992188 83.25 l 1
 416.666992188 -0.0830078125 l 1025
416.666992188 -83.4169921875 m 1
 500 -83.4169921875 l 1
 500 -0.0830078125 l 1
 416.666992188 -0.0830078125 l 1
 416.666992188 -83.4169921875 l 1025
416.666992188 -166.75 m 1
 416.666992188 -83.4169921875 l 1
 500 -83.4169921875 l 1
 500 -166.75 l 1
 416.666992188 -166.75 l 1
EndSplineSet
EndChar

StartChar: r
Encoding: 114 114 83
Width: 583
VWidth: 916
Flags: HW
LayerCount: 2
Back
Fore
SplineSet
166.666992188 416.583007812 m 1
 250 416.583007812 l 1
 250 499.916015625 l 1
 166.666992188 499.916015625 l 1
 166.666992188 416.583007812 l 1025
333.333984375 416.583007812 m 1
 500 416.583007812 l 1
 500 499.916015625 l 1
 333.333984375 499.916015625 l 1
 333.333984375 416.583007812 l 1025
166.666992188 333.25 m 1
 333.333984375 333.25 l 1
 333.333984375 416.583007812 l 1
 166.666992188 416.583007812 l 1
 166.666992188 333.25 l 1025
416.666992188 333.25 m 1
 500 333.25 l 1
 500 416.583007812 l 1
 416.666992188 416.583007812 l 1
 416.666992188 333.25 l 1025
166.666992188 249.916992188 m 1
 250 249.916992188 l 1
 250 333.25 l 1
 166.666992188 333.25 l 1
 166.666992188 249.916992188 l 1025
166.666992188 166.583984375 m 1
 250 166.583984375 l 1
 250 249.916992188 l 1
 166.666992188 249.916992188 l 1
 166.666992188 166.583984375 l 1025
166.666992188 83.25 m 1
 250 83.25 l 1
 250 166.583984375 l 1
 166.666992188 166.583984375 l 1
 166.666992188 83.25 l 1025
166.666992188 -0.0830078125 m 1
 166.666992188 83.25 l 1
 250 83.25 l 1
 250 -0.0830078125 l 1
 166.666992188 -0.0830078125 l 1
EndSplineSet
EndChar

StartChar: s
Encoding: 115 115 84
Width: 583
VWidth: 916
Flags: HW
LayerCount: 2
Back
Fore
SplineSet
166.666992188 416.583007812 m 1
 500 416.583007812 l 1
 500 499.916015625 l 1
 166.666992188 499.916015625 l 1
 166.666992188 416.583007812 l 1025
83.3330078125 333.25 m 1
 166.666992188 333.25 l 1
 166.666992188 416.583007812 l 1
 83.3330078125 416.583007812 l 1
 83.3330078125 333.25 l 1025
83.3330078125 249.916992188 m 1
 333.333984375 249.916992188 l 1
 333.333984375 333.25 l 1
 83.3330078125 333.25 l 1
 83.3330078125 249.916992188 l 1025
333.333984375 166.583984375 m 1
 500 166.583984375 l 1
 500 249.916992188 l 1
 333.333984375 249.916992188 l 1
 333.333984375 166.583984375 l 1025
83.3330078125 83.25 m 1
 166.666992188 83.25 l 1
 166.666992188 166.583984375 l 1
 83.3330078125 166.583984375 l 1
 83.3330078125 83.25 l 1025
416.666992188 83.25 m 1
 500 83.25 l 1
 500 166.583984375 l 1
 416.666992188 166.583984375 l 1
 416.666992188 83.25 l 1025
83.3330078125 -0.0830078125 m 1
 83.3330078125 83.25 l 1
 416.666992188 83.25 l 1
 416.666992188 -0.0830078125 l 1
 83.3330078125 -0.0830078125 l 1
EndSplineSet
EndChar

StartChar: t
Encoding: 116 116 85
Width: 583
VWidth: 916
Flags: HW
LayerCount: 2
Back
Fore
SplineSet
166.666992188 499.916015625 m 1
 250 499.916015625 l 1
 250 583.25 l 1
 166.666992188 583.25 l 1
 166.666992188 499.916015625 l 1025
83.3330078125 416.583007812 m 1
 500 416.583007812 l 1
 500 499.916015625 l 1
 83.3330078125 499.916015625 l 1
 83.3330078125 416.583007812 l 1025
166.666992188 333.25 m 1
 250 333.25 l 1
 250 416.583007812 l 1
 166.666992188 416.583007812 l 1
 166.666992188 333.25 l 1025
166.666992188 249.916992188 m 1
 250 249.916992188 l 1
 250 333.25 l 1
 166.666992188 333.25 l 1
 166.666992188 249.916992188 l 1025
166.666992188 166.583984375 m 1
 250 166.583984375 l 1
 250 249.916992188 l 1
 166.666992188 249.916992188 l 1
 166.666992188 166.583984375 l 1025
166.666992188 83.25 m 1
 250 83.25 l 1
 250 166.583984375 l 1
 166.666992188 166.583984375 l 1
 166.666992188 83.25 l 1025
166.666992188 -0.0830078125 m 1
 166.666992188 83.25 l 1
 500 83.25 l 1
 500 -0.0830078125 l 1
 166.666992188 -0.0830078125 l 1
EndSplineSet
EndChar

StartChar: u
Encoding: 117 117 86
Width: 583
VWidth: 916
Flags: HW
LayerCount: 2
Back
Fore
SplineSet
83.3330078125 416.583007812 m 1
 166.666992188 416.583007812 l 1
 166.666992188 499.916015625 l 1
 83.3330078125 499.916015625 l 1
 83.3330078125 416.583007812 l 1025
416.666992188 416.583007812 m 1
 500 416.583007812 l 1
 500 499.916015625 l 1
 416.666992188 499.916015625 l 1
 416.666992188 416.583007812 l 1025
83.3330078125 333.25 m 1
 166.666992188 333.25 l 1
 166.666992188 416.583007812 l 1
 83.3330078125 416.583007812 l 1
 83.3330078125 333.25 l 1025
416.666992188 333.25 m 1
 500 333.25 l 1
 500 416.583007812 l 1
 416.666992188 416.583007812 l 1
 416.666992188 333.25 l 1025
83.3330078125 249.916992188 m 1
 166.666992188 249.916992188 l 1
 166.666992188 333.25 l 1
 83.3330078125 333.25 l 1
 83.3330078125 249.916992188 l 1025
416.666992188 249.916992188 m 1
 500 249.916992188 l 1
 500 333.25 l 1
 416.666992188 333.25 l 1
 416.666992188 249.916992188 l 1025
83.3330078125 166.583984375 m 1
 166.666992188 166.583984375 l 1
 166.666992188 249.916992188 l 1
 83.3330078125 249.916992188 l 1
 83.3330078125 166.583984375 l 1025
416.666992188 166.583984375 m 1
 500 166.583984375 l 1
 500 249.916992188 l 1
 416.666992188 249.916992188 l 1
 416.666992188 166.583984375 l 1025
83.3330078125 83.25 m 1
 166.666992188 83.25 l 1
 166.666992188 166.583984375 l 1
 83.3330078125 166.583984375 l 1
 83.3330078125 83.25 l 1025
333.333984375 83.25 m 1
 500 83.25 l 1
 500 166.583984375 l 1
 333.333984375 166.583984375 l 1
 333.333984375 83.25 l 1025
166.666992188 -0.0830078125 m 1
 333.333984375 -0.0830078125 l 1
 333.333984375 83.25 l 1
 166.666992188 83.25 l 1
 166.666992188 -0.0830078125 l 1025
416.666992188 -0.0830078125 m 1
 416.666992188 83.25 l 1
 500 83.25 l 1
 500 -0.0830078125 l 1
 416.666992188 -0.0830078125 l 1
EndSplineSet
EndChar

StartChar: v
Encoding: 118 118 87
Width: 583
VWidth: 916
Flags: HW
LayerCount: 2
Back
Fore
SplineSet
0 416.583007812 m 1
 83.3330078125 416.583007812 l 1
 83.3330078125 499.916015625 l 1
 0 499.916015625 l 1
 0 416.583007812 l 1025
416.666992188 416.583007812 m 1
 500 416.583007812 l 1
 500 499.916015625 l 1
 416.666992188 499.916015625 l 1
 416.666992188 416.583007812 l 1025
83.3330078125 333.25 m 1
 166.666992188 333.25 l 1
 166.666992188 416.583007812 l 1
 83.3330078125 416.583007812 l 1
 83.3330078125 333.25 l 1025
333.333984375 333.25 m 1
 416.666992188 333.25 l 1
 416.666992188 416.583007812 l 1
 333.333984375 416.583007812 l 1
 333.333984375 333.25 l 1025
83.3330078125 249.916992188 m 1
 166.666992188 249.916992188 l 1
 166.666992188 333.25 l 1
 83.3330078125 333.25 l 1
 83.3330078125 249.916992188 l 1025
333.333984375 249.916992188 m 1
 416.666992188 249.916992188 l 1
 416.666992188 333.25 l 1
 333.333984375 333.25 l 1
 333.333984375 249.916992188 l 1025
83.3330078125 166.583984375 m 1
 166.666992188 166.583984375 l 1
 166.666992188 249.916992188 l 1
 83.3330078125 249.916992188 l 1
 83.3330078125 166.583984375 l 1025
333.333984375 166.583984375 m 1
 416.666992188 166.583984375 l 1
 416.666992188 249.916992188 l 1
 333.333984375 249.916992188 l 1
 333.333984375 166.583984375 l 1025
166.666992188 83.25 m 1
 333.333984375 83.25 l 1
 333.333984375 166.583984375 l 1
 166.666992188 166.583984375 l 1
 166.666992188 83.25 l 1025
166.666992188 -0.0830078125 m 1
 166.666992188 83.25 l 1
 333.333984375 83.25 l 1
 333.333984375 -0.0830078125 l 1
 166.666992188 -0.0830078125 l 1
EndSplineSet
EndChar

StartChar: w
Encoding: 119 119 88
Width: 583
VWidth: 916
Flags: HW
LayerCount: 2
Back
Fore
SplineSet
0 416.583007812 m 1
 83.3330078125 416.583007812 l 1
 83.3330078125 499.916015625 l 1
 0 499.916015625 l 1
 0 416.583007812 l 1025
416.666992188 416.583007812 m 1
 500 416.583007812 l 1
 500 499.916015625 l 1
 416.666992188 499.916015625 l 1
 416.666992188 416.583007812 l 1025
0 333.25 m 1
 83.3330078125 333.25 l 1
 83.3330078125 416.583007812 l 1
 0 416.583007812 l 1
 0 333.25 l 1025
166.666992188 333.25 m 1
 333.333984375 333.25 l 1
 333.333984375 416.583007812 l 1
 166.666992188 416.583007812 l 1
 166.666992188 333.25 l 1025
416.666992188 333.25 m 1
 500 333.25 l 1
 500 416.583007812 l 1
 416.666992188 416.583007812 l 1
 416.666992188 333.25 l 1025
0 249.916992188 m 1
 83.3330078125 249.916992188 l 1
 83.3330078125 333.25 l 1
 0 333.25 l 1
 0 249.916992188 l 1025
166.666992188 249.916992188 m 1
 333.333984375 249.916992188 l 1
 333.333984375 333.25 l 1
 166.666992188 333.25 l 1
 166.666992188 249.916992188 l 1025
416.666992188 249.916992188 m 1
 500 249.916992188 l 1
 500 333.25 l 1
 416.666992188 333.25 l 1
 416.666992188 249.916992188 l 1025
0 166.583984375 m 1
 83.3330078125 166.583984375 l 1
 83.3330078125 249.916992188 l 1
 0 249.916992188 l 1
 0 166.583984375 l 1025
166.666992188 166.583984375 m 1
 333.333984375 166.583984375 l 1
 333.333984375 249.916992188 l 1
 166.666992188 249.916992188 l 1
 166.666992188 166.583984375 l 1025
416.666992188 166.583984375 m 1
 500 166.583984375 l 1
 500 249.916992188 l 1
 416.666992188 249.916992188 l 1
 416.666992188 166.583984375 l 1025
83.3330078125 83.25 m 1
 166.666992188 83.25 l 1
 166.666992188 166.583984375 l 1
 83.3330078125 166.583984375 l 1
 83.3330078125 83.25 l 1025
250 83.25 m 1
 416.666992188 83.25 l 1
 416.666992188 166.583984375 l 1
 250 166.583984375 l 1
 250 83.25 l 1025
83.3330078125 -0.0830078125 m 1
 166.666992188 -0.0830078125 l 1
 166.666992188 83.25 l 1
 83.3330078125 83.25 l 1
 83.3330078125 -0.0830078125 l 1025
333.333984375 -0.0830078125 m 1
 333.333984375 83.25 l 1
 416.666992188 83.25 l 1
 416.666992188 -0.0830078125 l 1
 333.333984375 -0.0830078125 l 1
EndSplineSet
EndChar

StartChar: x
Encoding: 120 120 89
Width: 583
VWidth: 916
Flags: HW
LayerCount: 2
Back
Fore
SplineSet
0 416.583007812 m 1
 166.666992188 416.583007812 l 1
 166.666992188 499.916015625 l 1
 0 499.916015625 l 1
 0 416.583007812 l 1025
333.333984375 416.583007812 m 1
 500 416.583007812 l 1
 500 499.916015625 l 1
 333.333984375 499.916015625 l 1
 333.333984375 416.583007812 l 1025
83.3330078125 333.25 m 1
 166.666992188 333.25 l 1
 166.666992188 416.583007812 l 1
 83.3330078125 416.583007812 l 1
 83.3330078125 333.25 l 1025
333.333984375 333.25 m 1
 416.666992188 333.25 l 1
 416.666992188 416.583007812 l 1
 333.333984375 416.583007812 l 1
 333.333984375 333.25 l 1025
166.666992188 249.916992188 m 1
 333.333984375 249.916992188 l 1
 333.333984375 333.25 l 1
 166.666992188 333.25 l 1
 166.666992188 249.916992188 l 1025
166.666992188 166.583984375 m 1
 333.333984375 166.583984375 l 1
 333.333984375 249.916992188 l 1
 166.666992188 249.916992188 l 1
 166.666992188 166.583984375 l 1025
83.3330078125 83.25 m 1
 166.666992188 83.25 l 1
 166.666992188 166.583984375 l 1
 83.3330078125 166.583984375 l 1
 83.3330078125 83.25 l 1025
333.333984375 83.25 m 1
 416.666992188 83.25 l 1
 416.666992188 166.583984375 l 1
 333.333984375 166.583984375 l 1
 333.333984375 83.25 l 1025
0 -0.0830078125 m 1
 166.666992188 -0.0830078125 l 1
 166.666992188 83.25 l 1
 0 83.25 l 1
 0 -0.0830078125 l 1025
333.333984375 -0.0830078125 m 1
 333.333984375 83.25 l 1
 500 83.25 l 1
 500 -0.0830078125 l 1
 333.333984375 -0.0830078125 l 1
EndSplineSet
EndChar

StartChar: y
Encoding: 121 121 90
Width: 583
VWidth: 916
Flags: HW
LayerCount: 2
Back
Fore
SplineSet
0 416.583007812 m 1
 83.3330078125 416.583007812 l 1
 83.3330078125 499.916015625 l 1
 0 499.916015625 l 1
 0 416.583007812 l 1025
416.666992188 416.583007812 m 1
 500 416.583007812 l 1
 500 499.916015625 l 1
 416.666992188 499.916015625 l 1
 416.666992188 416.583007812 l 1025
83.3330078125 333.25 m 1
 166.666992188 333.25 l 1
 166.666992188 416.583007812 l 1
 83.3330078125 416.583007812 l 1
 83.3330078125 333.25 l 1025
333.333984375 333.25 m 1
 416.666992188 333.25 l 1
 416.666992188 416.583007812 l 1
 333.333984375 416.583007812 l 1
 333.333984375 333.25 l 1025
83.3330078125 249.916992188 m 1
 166.666992188 249.916992188 l 1
 166.666992188 333.25 l 1
 83.3330078125 333.25 l 1
 83.3330078125 249.916992188 l 1025
333.333984375 249.916992188 m 1
 416.666992188 249.916992188 l 1
 416.666992188 333.25 l 1
 333.333984375 333.25 l 1
 333.333984375 249.916992188 l 1025
166.666992188 166.583984375 m 1
 333.333984375 166.583984375 l 1
 333.333984375 249.916992188 l 1
 166.666992188 249.916992188 l 1
 166.666992188 166.583984375 l 1025
166.666992188 83.25 m 1
 333.333984375 83.25 l 1
 333.333984375 166.583984375 l 1
 166.666992188 166.583984375 l 1
 166.666992188 83.25 l 1025
166.666992188 -0.0830078125 m 1
 333.333984375 -0.0830078125 l 1
 333.333984375 83.25 l 1
 166.666992188 83.25 l 1
 166.666992188 -0.0830078125 l 1025
166.666992188 -83.4169921875 m 1
 250 -83.4169921875 l 1
 250 -0.0830078125 l 1
 166.666992188 -0.0830078125 l 1
 166.666992188 -83.4169921875 l 1025
0 -166.75 m 1
 0 -83.4169921875 l 1
 250 -83.4169921875 l 1
 250 -166.75 l 1
 0 -166.75 l 1
EndSplineSet
EndChar

StartChar: z
Encoding: 122 122 91
Width: 583
VWidth: 916
Flags: HW
LayerCount: 2
Back
Fore
SplineSet
83.3330078125 416.583007812 m 1
 500 416.583007812 l 1
 500 499.916015625 l 1
 83.3330078125 499.916015625 l 1
 83.3330078125 416.583007812 l 1025
333.333984375 333.25 m 1
 416.666992188 333.25 l 1
 416.666992188 416.583007812 l 1
 333.333984375 416.583007812 l 1
 333.333984375 333.25 l 1025
250 249.916992188 m 1
 416.666992188 249.916992188 l 1
 416.666992188 333.25 l 1
 250 333.25 l 1
 250 249.916992188 l 1025
166.666992188 166.583984375 m 1
 333.333984375 166.583984375 l 1
 333.333984375 249.916992188 l 1
 166.666992188 249.916992188 l 1
 166.666992188 166.583984375 l 1025
83.3330078125 83.25 m 1
 250 83.25 l 1
 250 166.583984375 l 1
 83.3330078125 166.583984375 l 1
 83.3330078125 83.25 l 1025
83.3330078125 -0.0830078125 m 1
 83.3330078125 83.25 l 1
 500 83.25 l 1
 500 -0.0830078125 l 1
 83.3330078125 -0.0830078125 l 1
EndSplineSet
EndChar

StartChar: braceleft
Encoding: 123 123 92
Width: 583
VWidth: 916
Flags: HW
LayerCount: 2
Back
Fore
SplineSet
250 583.25 m 1
 416.666992188 583.25 l 1
 416.666992188 666.583007812 l 1
 250 666.583007812 l 1
 250 583.25 l 1025
166.666992188 499.916015625 m 1
 250 499.916015625 l 1
 250 583.25 l 1
 166.666992188 583.25 l 1
 166.666992188 499.916015625 l 1025
166.666992188 416.583007812 m 1
 250 416.583007812 l 1
 250 499.916015625 l 1
 166.666992188 499.916015625 l 1
 166.666992188 416.583007812 l 1025
166.666992188 333.25 m 1
 250 333.25 l 1
 250 416.583007812 l 1
 166.666992188 416.583007812 l 1
 166.666992188 333.25 l 1025
83.3330078125 249.916992188 m 1
 250 249.916992188 l 1
 250 333.25 l 1
 83.3330078125 333.25 l 1
 83.3330078125 249.916992188 l 1025
166.666992188 166.583984375 m 1
 250 166.583984375 l 1
 250 249.916992188 l 1
 166.666992188 249.916992188 l 1
 166.666992188 166.583984375 l 1025
166.666992188 83.25 m 1
 250 83.25 l 1
 250 166.583984375 l 1
 166.666992188 166.583984375 l 1
 166.666992188 83.25 l 1025
166.666992188 -0.0830078125 m 1
 250 -0.0830078125 l 1
 250 83.25 l 1
 166.666992188 83.25 l 1
 166.666992188 -0.0830078125 l 1025
166.666992188 -83.4169921875 m 1
 250 -83.4169921875 l 1
 250 -0.0830078125 l 1
 166.666992188 -0.0830078125 l 1
 166.666992188 -83.4169921875 l 1025
250 -166.75 m 1
 250 -83.4169921875 l 1
 416.666992188 -83.4169921875 l 1
 416.666992188 -166.75 l 1
 250 -166.75 l 1
EndSplineSet
EndChar

StartChar: bar
Encoding: 124 124 93
Width: 583
VWidth: 916
Flags: HW
LayerCount: 2
Back
Fore
SplineSet
250 583.25 m 1
 333.333984375 583.25 l 1
 333.333984375 666.583007812 l 1
 250 666.583007812 l 1
 250 583.25 l 1025
250 499.916015625 m 1
 333.333984375 499.916015625 l 1
 333.333984375 583.25 l 1
 250 583.25 l 1
 250 499.916015625 l 1025
250 416.583007812 m 1
 333.333984375 416.583007812 l 1
 333.333984375 499.916015625 l 1
 250 499.916015625 l 1
 250 416.583007812 l 1025
250 333.25 m 1
 333.333984375 333.25 l 1
 333.333984375 416.583007812 l 1
 250 416.583007812 l 1
 250 333.25 l 1025
250 249.916992188 m 1
 333.333984375 249.916992188 l 1
 333.333984375 333.25 l 1
 250 333.25 l 1
 250 249.916992188 l 1025
250 166.583984375 m 1
 333.333984375 166.583984375 l 1
 333.333984375 249.916992188 l 1
 250 249.916992188 l 1
 250 166.583984375 l 1025
250 83.25 m 1
 333.333984375 83.25 l 1
 333.333984375 166.583984375 l 1
 250 166.583984375 l 1
 250 83.25 l 1025
250 -0.0830078125 m 1
 333.333984375 -0.0830078125 l 1
 333.333984375 83.25 l 1
 250 83.25 l 1
 250 -0.0830078125 l 1025
250 -83.4169921875 m 1
 333.333984375 -83.4169921875 l 1
 333.333984375 -0.0830078125 l 1
 250 -0.0830078125 l 1
 250 -83.4169921875 l 1025
250 -166.75 m 1
 250 -83.4169921875 l 1
 333.333984375 -83.4169921875 l 1
 333.333984375 -166.75 l 1
 250 -166.75 l 1
EndSplineSet
EndChar

StartChar: braceright
Encoding: 125 125 94
Width: 583
VWidth: 916
Flags: HW
LayerCount: 2
Back
Fore
SplineSet
83.3330078125 583.25 m 1
 250 583.25 l 1
 250 666.583007812 l 1
 83.3330078125 666.583007812 l 1
 83.3330078125 583.25 l 1025
250 499.916015625 m 1
 333.333984375 499.916015625 l 1
 333.333984375 583.25 l 1
 250 583.25 l 1
 250 499.916015625 l 1025
250 416.583007812 m 1
 333.333984375 416.583007812 l 1
 333.333984375 499.916015625 l 1
 250 499.916015625 l 1
 250 416.583007812 l 1025
250 333.25 m 1
 333.333984375 333.25 l 1
 333.333984375 416.583007812 l 1
 250 416.583007812 l 1
 250 333.25 l 1025
250 249.916992188 m 1
 500 249.916992188 l 1
 500 333.25 l 1
 250 333.25 l 1
 250 249.916992188 l 1025
250 166.583984375 m 1
 333.333984375 166.583984375 l 1
 333.333984375 249.916992188 l 1
 250 249.916992188 l 1
 250 166.583984375 l 1025
250 83.25 m 1
 333.333984375 83.25 l 1
 333.333984375 166.583984375 l 1
 250 166.583984375 l 1
 250 83.25 l 1025
250 -0.0830078125 m 1
 333.333984375 -0.0830078125 l 1
 333.333984375 83.25 l 1
 250 83.25 l 1
 250 -0.0830078125 l 1025
250 -83.4169921875 m 1
 333.333984375 -83.4169921875 l 1
 333.333984375 -0.0830078125 l 1
 250 -0.0830078125 l 1
 250 -83.4169921875 l 1025
83.3330078125 -166.75 m 1
 83.3330078125 -83.4169921875 l 1
 250 -83.4169921875 l 1
 250 -166.75 l 1
 83.3330078125 -166.75 l 1
EndSplineSet
EndChar

StartChar: asciitilde
Encoding: 126 126 95
Width: 583
VWidth: 916
Flags: HW
LayerCount: 2
Back
Fore
SplineSet
83.3330078125 249.916992188 m 1
 250 249.916992188 l 1
 250 333.25 l 1
 83.3330078125 333.25 l 1
 83.3330078125 249.916992188 l 1025
416.666992188 249.916992188 m 1
 500 249.916992188 l 1
 500 333.25 l 1
 416.666992188 333.25 l 1
 416.666992188 249.916992188 l 1025
0 166.583984375 m 1
 83.3330078125 166.583984375 l 1
 83.3330078125 249.916992188 l 1
 0 249.916992188 l 1
 0 166.583984375 l 1025
250 166.583984375 m 1
 250 249.916992188 l 1
 416.666992188 249.916992188 l 1
 416.666992188 166.583984375 l 1
 250 166.583984375 l 1
EndSplineSet
EndChar

StartChar: hyphen
Encoding: 45 45 109
Width: 583
VWidth: 916
Flags: HW
LayerCount: 2
Back
Fore
SplineSet
83.3330078125 249.916992188 m 1
 83.3330078125 333.25 l 1
 416.666992188 333.25 l 1
 416.666992188 249.916992188 l 1
 83.3330078125 249.916992188 l 1
EndSplineSet
EndChar

